<svg width="177" height="210" viewBox="0 0 177 210" fill="none" xmlns="http://www.w3.org/2000/svg">
<rect width="177" height="210" rx="3.85" fill="#DDF6F9"/>
<path d="M98.9122 49.9038H97.8223V18.2946C97.8223 13.4426 96.0016 8.78927 92.7607 5.35837C89.5198 1.92747 85.1243 6.1223e-06 80.541 0H17.2814C15.012 -6.06281e-06 12.7648 0.473191 10.6681 1.39257C8.57143 2.31196 6.66634 3.65952 5.06162 5.35833C3.45689 7.05713 2.18395 9.0739 1.31548 11.2935C0.447005 13.5131 5.01119e-06 15.8921 0 18.2945V191.705C-2.14765e-06 194.108 0.446986 196.487 1.31545 198.706C2.18392 200.926 3.45686 202.943 5.06158 204.642C6.66631 206.34 8.57139 207.688 10.6681 208.607C12.7647 209.527 15.0119 210 17.2813 210H80.5409C85.1242 210 89.5198 208.073 92.7606 204.642C96.0015 201.211 97.8223 196.557 97.8223 191.705V72.4039H98.9122V49.9038Z" fill="#E6E6E6"/>
<path d="M81.2381 4.75979H72.9807C73.3604 5.74537 73.5054 6.81469 73.4028 7.87355C73.3002 8.93241 72.9532 9.94831 72.3923 10.8318C71.8315 11.7152 71.074 12.4391 70.1867 12.9396C69.2993 13.4402 68.3093 13.702 67.3038 13.7021H31.0633C30.0578 13.702 29.0678 13.4402 28.1804 12.9396C27.2931 12.4391 26.5356 11.7152 25.9748 10.8317C25.4139 9.9483 25.0669 8.9324 24.9643 7.87353C24.8618 6.81467 25.0067 5.74535 25.3864 4.75977H17.674C14.2512 4.75976 10.9686 6.19917 8.54838 8.76132C6.12813 11.3235 4.76844 14.7985 4.76843 18.4219V191.578C4.76843 195.202 6.12811 198.677 8.54837 201.239C10.9686 203.801 14.2512 205.241 17.6739 205.241H81.2381C82.9329 205.241 84.6111 204.887 86.1769 204.201C87.7426 203.514 89.1653 202.508 90.3637 201.239C91.5621 199.97 92.5127 198.464 93.1613 196.807C93.8099 195.149 94.1437 193.373 94.1437 191.578V18.4219C94.1437 16.6278 93.8099 14.8512 93.1613 13.1937C92.5127 11.5361 91.5621 10.03 90.3637 8.76133C89.1653 7.49269 87.7426 6.48634 86.1768 5.79975C84.6111 5.11317 82.9329 4.75979 81.2381 4.75979Z" fill="white"/>
<path d="M88.8986 140.76H12.6832C12.309 140.76 11.9503 140.602 11.6857 140.322C11.4211 140.042 11.2723 139.662 11.2719 139.266V119.252C11.2723 118.856 11.4211 118.476 11.6857 118.196C11.9503 117.916 12.309 117.758 12.6832 117.758H88.8986C89.2728 117.758 89.6315 117.916 89.8961 118.196C90.1607 118.476 90.3095 118.856 90.3099 119.252V139.266C90.3094 139.662 90.1606 140.042 89.896 140.322C89.6314 140.602 89.2727 140.76 88.8986 140.76ZM12.6832 118.355C12.4587 118.356 12.2434 118.45 12.0846 118.618C11.9259 118.786 11.8366 119.014 11.8363 119.252V139.266C11.8366 139.504 11.9259 139.732 12.0846 139.9C12.2434 140.068 12.4587 140.163 12.6832 140.163H88.8986C89.1231 140.163 89.3384 140.068 89.4972 139.9C89.6559 139.732 89.7452 139.504 89.7454 139.266V119.252C89.7452 119.014 89.6559 118.786 89.4972 118.618C89.3384 118.45 89.1231 118.356 88.8986 118.355H12.6832Z" fill="#E6E6E6"/>
<path d="M22.5628 135.534C25.8367 135.534 28.4906 132.725 28.4906 129.259C28.4906 125.793 25.8367 122.983 22.5628 122.983C19.289 122.983 16.635 125.793 16.635 129.259C16.635 132.725 19.289 135.534 22.5628 135.534Z" fill="#E6E6E6"/>
<path d="M36.2534 125.075C35.9942 125.08 35.7471 125.192 35.5654 125.388C35.3836 125.583 35.2817 125.847 35.2817 126.121C35.2817 126.396 35.3836 126.659 35.5654 126.855C35.7471 127.05 35.9942 127.162 36.2534 127.167H82.8294C83.0914 127.172 83.3447 127.067 83.5335 126.875C83.7223 126.683 83.8312 126.419 83.8363 126.141C83.8414 125.864 83.7421 125.596 83.5604 125.396C83.3788 125.196 83.1295 125.081 82.8675 125.075L82.8618 125.075C82.851 125.075 82.8402 125.075 82.8294 125.075H36.2534Z" fill="#E6E6E6"/>
<path d="M36.2534 131.351C35.9942 131.355 35.7471 131.467 35.5654 131.663C35.3836 131.859 35.2817 132.122 35.2817 132.397C35.2817 132.671 35.3836 132.934 35.5654 133.13C35.7471 133.326 35.9942 133.438 36.2534 133.442H82.8294C83.091 133.446 83.3433 133.34 83.5311 133.147C83.7189 132.954 83.8267 132.691 83.831 132.414C83.8353 132.137 83.7357 131.869 83.554 131.67C83.3723 131.471 83.1234 131.356 82.8618 131.351C82.851 131.351 82.8402 131.351 82.8294 131.351H36.2534Z" fill="#E6E6E6"/>
<path d="M88.8986 174.229H12.6832C12.309 174.228 11.9503 174.071 11.6857 173.791C11.4211 173.511 11.2723 173.131 11.2719 172.735V152.721C11.2723 152.325 11.4211 151.945 11.6857 151.665C11.9503 151.385 12.309 151.227 12.6832 151.227H88.8986C89.2728 151.227 89.6315 151.385 89.8961 151.665C90.1607 151.945 90.3095 152.325 90.3099 152.721V172.735C90.3094 173.131 90.1606 173.511 89.896 173.791C89.6314 174.071 89.2727 174.228 88.8986 174.229ZM12.6832 151.824C12.4587 151.824 12.2434 151.919 12.0846 152.087C11.9259 152.255 11.8366 152.483 11.8363 152.721V172.735C11.8366 172.973 11.9259 173.201 12.0846 173.369C12.2434 173.537 12.4587 173.631 12.6832 173.632H88.8986C89.1231 173.631 89.3384 173.537 89.4972 173.369C89.6559 173.201 89.7452 172.973 89.7454 172.735V152.721C89.7452 152.483 89.6559 152.255 89.4972 152.087C89.3384 151.919 89.1231 151.824 88.8986 151.824H12.6832Z" fill="#E6E6E6"/>
<path d="M22.5628 169.003C25.8367 169.003 28.4906 166.193 28.4906 162.728C28.4906 159.262 25.8367 156.452 22.5628 156.452C19.289 156.452 16.635 159.262 16.635 162.728C16.635 166.193 19.289 169.003 22.5628 169.003Z" fill="#E6E6E6"/>
<path d="M36.2534 158.544C35.9942 158.549 35.7471 158.661 35.5654 158.856C35.3836 159.052 35.2817 159.316 35.2817 159.59C35.2817 159.864 35.3836 160.128 35.5654 160.323C35.7471 160.519 35.9942 160.631 36.2534 160.636H82.8294C83.091 160.64 83.3433 160.533 83.5311 160.341C83.7189 160.148 83.8267 159.884 83.831 159.607C83.8353 159.33 83.7357 159.063 83.554 158.863C83.3723 158.664 83.1234 158.549 82.8618 158.544C82.851 158.544 82.8402 158.544 82.8294 158.544H36.2534Z" fill="#E6E6E6"/>
<path d="M36.2534 164.819C35.9942 164.824 35.7471 164.936 35.5654 165.132C35.3836 165.328 35.2817 165.591 35.2817 165.865C35.2817 166.14 35.3836 166.403 35.5654 166.599C35.7471 166.794 35.9942 166.907 36.2534 166.911H82.8294C83.091 166.915 83.3433 166.809 83.5311 166.616C83.7189 166.423 83.8267 166.159 83.831 165.882C83.8353 165.606 83.7357 165.338 83.554 165.139C83.3723 164.94 83.1234 164.825 82.8618 164.819C82.851 164.819 82.8402 164.819 82.8294 164.819H36.2534Z" fill="#E6E6E6"/>
<path d="M49.187 99.2273C42.0778 99.2304 35.2586 96.2438 30.2296 90.9243C25.2005 85.6048 22.3736 78.3883 22.3706 70.8623V70.8386C22.3706 70.7792 22.3706 70.7166 22.3739 70.6571C22.4556 55.1104 34.4846 42.4497 49.187 42.4497C56.2991 42.4489 63.1203 45.439 68.1499 50.7623C73.1796 56.0856 76.0056 63.306 76.0064 70.8351C76.0072 78.3643 73.1827 85.5854 68.1543 90.9099C63.1258 96.2344 56.3053 99.2261 49.1931 99.227H49.187V99.2273ZM49.187 43.0467C42.2562 43.0631 35.6116 45.9742 30.6967 51.1474C25.7819 56.3207 22.9939 63.3381 22.9386 70.675C22.9356 70.7385 22.9356 70.7905 22.9356 70.8378C22.935 76.335 24.4742 81.709 27.3586 86.2802C30.243 90.8513 34.3431 94.4144 39.1404 96.5187C43.9376 98.623 49.2166 99.1742 54.3097 98.1024C59.4029 97.0306 64.0814 94.384 67.7537 90.4974C71.426 86.6107 73.9272 81.6586 74.9409 76.2671C75.9546 70.8756 75.4353 65.287 73.4487 60.2079C71.4621 55.1289 68.0974 50.7875 63.7801 47.7329C59.4628 44.6782 54.3869 43.0474 49.1941 43.0467H49.187Z" fill="#E6E6E6"/>
<path d="M85.8901 133.553C91.9115 133.553 96.7928 128.385 96.7928 122.011C96.7928 115.636 91.9115 110.469 85.8901 110.469C79.8687 110.469 74.9874 115.636 74.9874 122.011C74.9874 128.385 79.8687 133.553 85.8901 133.553Z" fill="white"/>
<path d="M82.1035 127.204C82.0848 127.204 82.0662 127.204 82.0474 127.203H76.1872C75.4436 127.191 74.7344 126.869 74.2126 126.308C73.6908 125.747 73.3982 124.992 73.3979 124.205C73.3977 123.417 73.6897 122.661 74.211 122.1C74.7324 121.539 75.4413 121.217 76.1849 121.204H82.05C82.0788 121.203 82.1101 121.203 82.1411 121.204C82.8891 121.214 83.6028 121.538 84.1264 122.104C84.6499 122.669 84.941 123.431 84.936 124.223C84.9311 125.015 84.6305 125.773 84.0999 126.331C83.5693 126.89 82.8517 127.203 82.1035 127.204Z" fill="#181542"/>
<path d="M177 209.297H88.679V209.944H177V209.297Z" fill="#3F3D56"/>
<path d="M94.1206 154.585C94.0512 154.47 93.9936 154.349 93.9489 154.221L92.5415 150.232C92.3777 149.766 92.3952 149.25 92.5902 148.798C92.7851 148.345 93.1416 147.993 93.5815 147.819L124.993 135.402C125.433 135.228 125.92 135.247 126.348 135.453C126.775 135.659 127.108 136.037 127.272 136.502L128.68 140.492C128.761 140.723 128.799 140.969 128.79 141.215C128.782 141.461 128.728 141.703 128.632 141.927C128.535 142.151 128.398 142.353 128.228 142.521C128.057 142.689 127.858 142.819 127.64 142.905L96.2285 155.322C95.8503 155.472 95.4353 155.48 95.052 155.346C94.6687 155.212 94.3402 154.943 94.1206 154.585Z" fill="#181542"/>
<path d="M124.893 134.371L112.119 139.763C111.717 139.892 111.376 140.179 111.169 140.566C110.961 140.953 110.902 141.409 111.004 141.841L112.486 148.124C112.545 148.372 112.655 148.604 112.808 148.802C112.961 148.999 113.153 149.159 113.372 149.269C113.59 149.378 113.829 149.435 114.07 149.436C114.312 149.436 114.551 149.38 114.769 149.271L127.578 142.889C127.984 142.727 128.313 142.403 128.493 141.985C128.673 141.568 128.689 141.092 128.539 140.662L126.999 135.388C126.847 134.958 126.54 134.609 126.145 134.419C125.75 134.228 125.3 134.211 124.893 134.371Z" fill="#2F2E41"/>
<path d="M148.269 173.516C147.868 173.565 147.463 173.467 147.122 173.24C146.78 173.012 146.522 172.668 146.39 172.264L135.457 138.709C135.381 138.476 135.349 138.23 135.363 137.984C135.377 137.738 135.437 137.497 135.539 137.276C135.64 137.054 135.783 136.856 135.957 136.693C136.131 136.53 136.334 136.404 136.554 136.324L140.357 134.935C140.801 134.773 141.288 134.805 141.71 135.023C142.132 135.24 142.456 135.627 142.609 136.097L153.543 169.652C153.696 170.122 153.666 170.638 153.46 171.085C153.255 171.532 152.89 171.874 152.446 172.037L148.643 173.425C148.522 173.47 148.396 173.5 148.269 173.516Z" fill="#181542"/>
<path d="M143.424 135.522L147.621 149.386C147.783 149.796 147.79 150.257 147.641 150.673C147.491 151.088 147.196 151.427 146.816 151.619L141.294 154.405C141.076 154.515 140.837 154.573 140.596 154.574C140.354 154.574 140.115 154.519 139.896 154.41C139.678 154.301 139.484 154.143 139.33 153.946C139.176 153.749 139.065 153.518 139.006 153.27L135.508 138.748C135.368 138.314 135.395 137.839 135.585 137.426C135.774 137.013 136.111 136.697 136.52 136.547L141.343 134.449C141.753 134.3 142.203 134.329 142.593 134.53C142.983 134.731 143.282 135.088 143.424 135.522Z" fill="#2F2E41"/>
<path d="M130.718 209.488H126.695C126.226 209.487 125.775 209.289 125.443 208.938C125.111 208.586 124.924 208.109 124.924 207.612V172.116C124.924 171.619 125.111 171.142 125.443 170.791C125.775 170.439 126.226 170.241 126.695 170.241H130.718C131.188 170.241 131.638 170.439 131.971 170.791C132.303 171.142 132.489 171.619 132.49 172.116V207.612C132.489 208.109 132.303 208.586 131.971 208.938C131.638 209.289 131.188 209.487 130.718 209.488Z" fill="#2F2E41"/>
<path d="M138.675 209.488H134.652C134.182 209.487 133.732 209.289 133.4 208.938C133.068 208.586 132.881 208.109 132.88 207.612V172.116C132.881 171.619 133.068 171.142 133.4 170.791C133.732 170.439 134.182 170.241 134.652 170.241H138.675C139.145 170.241 139.595 170.439 139.927 170.791C140.26 171.142 140.446 171.619 140.447 172.116V207.612C140.446 208.109 140.26 208.586 139.927 208.938C139.595 209.289 139.145 209.487 138.675 209.488Z" fill="#2F2E41"/>
<path d="M141.991 176.29H123.712C123.206 176.289 122.721 176.076 122.363 175.697C122.005 175.319 121.804 174.805 121.804 174.27V142.834C121.804 139.732 122.968 136.757 125.039 134.564C127.111 132.371 129.921 131.139 132.851 131.139C135.781 131.139 138.591 132.371 140.663 134.564C142.735 136.757 143.899 139.732 143.899 142.834V174.27C143.898 174.805 143.697 175.319 143.339 175.697C142.982 176.076 142.497 176.289 141.991 176.29Z" fill="#CCCCCC"/>
<path d="M144.742 183.979H135.475V128.533L135.647 128.583C138.257 129.341 140.56 130.985 142.203 133.262C143.846 135.539 144.738 138.324 144.742 141.189V183.979Z" fill="#2F2E41"/>
<path d="M129.474 183.979H120.207V141.189C120.211 138.324 121.103 135.539 122.746 133.262C124.389 130.985 126.692 129.341 129.302 128.583L129.474 128.533V183.979Z" fill="#2F2E41"/>
<path d="M132.713 124.636C140.769 124.636 147.3 117.722 147.3 109.193C147.3 100.664 140.769 93.75 132.713 93.75C124.656 93.75 118.125 100.664 118.125 109.193C118.125 117.722 124.656 124.636 132.713 124.636Z" fill="#181542"/>
<path d="M149.205 105.637C149.205 105.637 150.023 81.6878 139.393 89.4787C139.393 89.4787 133.26 67.6932 118.269 100.299L113.908 104.916C113.908 104.916 133.533 102.031 151.795 110.976L149.205 105.637Z" fill="#2F2E41"/>
<path d="M132.935 116.841C132.034 116.815 130.913 116.782 130.049 116.113C129.792 115.906 129.58 115.642 129.429 115.339C129.279 115.037 129.192 114.703 129.177 114.361C129.161 114.118 129.199 113.875 129.287 113.65C129.374 113.425 129.51 113.225 129.684 113.065C130.135 112.661 130.794 112.566 131.504 112.787L130.768 107.095L131.308 107.017L132.173 113.709L131.722 113.489C131.199 113.236 130.482 113.106 130.036 113.505C129.926 113.61 129.841 113.739 129.786 113.884C129.732 114.029 129.709 114.185 129.721 114.341C129.735 114.595 129.799 114.844 129.911 115.069C130.023 115.294 130.18 115.492 130.37 115.647C131.043 116.167 131.937 116.234 132.95 116.264L132.935 116.841Z" fill="#2F2E41"/>
<path d="M128.097 107.586H125.161V108.164H128.097V107.586Z" fill="#2F2E41"/>
<path d="M137.365 107.586H134.429V108.164H137.365V107.586Z" fill="#2F2E41"/>
<path d="M100.188 156.057C99.7949 156.25 99.345 156.27 98.9377 156.112C98.5305 155.954 98.1991 155.632 98.0165 155.215L88.6099 133.752C88.4274 133.335 88.4087 132.859 88.5579 132.428C88.707 131.997 89.0118 131.646 89.4053 131.453C89.7987 131.26 90.2485 131.24 90.6557 131.398C91.063 131.555 91.3944 131.878 91.577 132.294L100.984 153.758C101.166 154.174 101.185 154.651 101.036 155.082C100.887 155.513 100.582 155.864 100.188 156.057Z" fill="#3F3D56"/>
<path d="M90.5238 132.962C90.2347 132.962 89.9573 132.84 89.7529 132.624C89.5484 132.407 89.4335 132.114 89.4335 131.808V117.105H75.8051C75.516 117.105 75.2386 116.984 75.0342 116.767C74.8297 116.551 74.7148 116.257 74.7148 115.951C74.7148 115.645 74.8297 115.351 75.0342 115.135C75.2386 114.918 75.516 114.797 75.8051 114.797H90.5238C90.813 114.797 91.0903 114.918 91.2948 115.135C91.4992 115.351 91.6141 115.645 91.6141 115.951V131.808C91.6141 132.114 91.4992 132.407 91.2948 132.624C91.0903 132.84 90.813 132.962 90.5238 132.962Z" fill="#181542"/>
<path d="M90.7817 134.594C88.4344 135.746 85.8168 136.137 83.2601 135.715C80.7034 135.293 78.3222 134.078 76.4178 132.223C74.5134 130.368 73.1712 127.958 72.561 125.296C71.9508 122.634 72.1 119.84 72.9898 117.267C73.8795 114.695 75.4698 112.46 77.5595 110.844C79.6492 109.229 82.1445 108.305 84.7299 108.191C87.3153 108.077 89.8746 108.777 92.0842 110.203C94.2938 111.628 96.0545 113.716 97.1435 116.2C98.5998 119.533 98.7479 123.341 97.5552 126.79C96.3625 130.238 93.9266 133.044 90.7817 134.594ZM81.1456 112.607C79.3852 113.471 77.9064 114.869 76.8964 116.624C75.8864 118.378 75.3905 120.41 75.4714 122.463C75.5523 124.515 76.2064 126.497 77.3509 128.156C78.4955 129.815 80.0791 131.078 81.9015 131.784C83.7239 132.49 85.7032 132.609 87.5892 132.124C89.4752 131.64 91.1832 130.574 92.4971 129.062C93.8109 127.55 94.6718 125.66 94.9707 123.63C95.2697 121.6 94.9933 119.521 94.1765 117.658C93.0789 115.161 91.0906 113.227 88.6477 112.28C86.2047 111.333 83.5068 111.45 81.1456 112.607Z" fill="#3F3D56"/>
</svg>
