<svg width="197" height="210" viewBox="0 0 197 210" fill="none" xmlns="http://www.w3.org/2000/svg">
<g clip-path="url(#clip0_256_394)">
<rect width="197" height="210" rx="3.85" fill="#DDF6F9"/>
<path d="M157.665 49.8099H156.856V18.2601C156.856 15.8622 156.524 13.4877 155.88 11.2723C155.235 9.05687 154.291 7.04389 153.1 5.34828C151.909 3.65267 150.496 2.30763 148.94 1.38998C147.384 0.472316 145.716 2.26933e-06 144.032 0H97.0909C93.6899 -1.06937e-05 90.4281 1.92381 88.0232 5.34824C85.6184 8.77266 84.2673 13.4172 84.2673 18.2601V191.344C84.2673 196.187 85.6183 200.832 88.0232 204.256C90.4281 207.681 93.6898 209.604 97.0908 209.604H144.032C147.433 209.604 150.695 207.681 153.1 204.256C155.505 200.832 156.856 196.187 156.856 191.344V72.2675H157.665L157.665 49.8099Z" fill="#E6E6E6"/>
<path d="M154.127 18.3876V191.217C154.127 194.834 153.118 198.303 151.322 200.86C149.525 203.417 147.09 204.854 144.55 204.854H97.3829C94.8429 204.854 92.407 203.417 90.611 200.86C88.815 198.303 87.806 194.834 87.8059 191.217V18.3876C87.806 14.7708 88.815 11.3022 90.611 8.74477C92.407 6.18734 94.8429 4.75056 97.3829 4.75049H103.105C102.824 5.73431 102.717 6.80144 102.793 7.85801C102.869 8.91458 103.127 9.92822 103.543 10.8098C103.959 11.6913 104.521 12.4137 105.179 12.9135C105.838 13.4132 106.572 13.675 107.318 13.6758H134.21C134.956 13.675 135.69 13.4132 136.349 12.9135C137.007 12.4137 137.569 11.6913 137.985 10.8097C138.401 9.9282 138.659 8.91457 138.735 7.858C138.811 6.80144 138.704 5.73431 138.423 4.75049H144.55C147.09 4.75055 149.525 6.18734 151.321 8.74477C153.118 11.3022 154.127 14.7708 154.127 18.3876Z" fill="white"/>
<path d="M30.0192 172.332C29.6525 172.332 29.2981 172.144 29.0213 171.801L26.772 169.007C26.4694 168.63 26.2839 168.098 26.2563 167.527C26.2286 166.955 26.361 166.392 26.6245 165.959L42.9794 139.258C43.0119 139.203 43.0466 139.151 43.0836 139.103C43.3578 138.736 43.7179 138.528 44.094 138.518C44.4701 138.509 44.8353 138.699 45.1186 139.051L47.3695 141.844C47.5196 142.031 47.6424 142.258 47.7309 142.512C47.8194 142.766 47.8719 143.042 47.8853 143.325L47.8854 143.326C47.899 143.609 47.8733 143.893 47.8097 144.162C47.7461 144.431 47.6459 144.679 47.5148 144.893L31.1622 171.594C31.0197 171.826 30.8439 172.012 30.6468 172.139C30.4496 172.266 30.2356 172.332 30.0192 172.332L30.0192 172.332Z" fill="#464468"/>
<path d="M60.0655 144.553C59.9079 144.553 59.7513 144.519 59.6008 144.452C59.4108 144.366 59.2346 144.227 59.0824 144.044C58.9301 143.861 58.8048 143.637 58.7137 143.384L57.3462 139.605C57.1907 139.178 57.1402 138.689 57.2028 138.216C57.2653 137.744 57.4373 137.314 57.6914 136.997C57.7841 136.878 57.8873 136.777 57.9984 136.696L80.1136 120.461C80.4713 120.199 80.887 120.15 81.27 120.324C81.6529 120.498 81.9719 120.881 82.1571 121.389L83.5244 125.168C83.7079 125.678 83.7423 126.27 83.62 126.815C83.4977 127.36 83.2287 127.814 82.8718 128.078L60.7572 144.313C60.5434 144.471 60.3063 144.553 60.0655 144.553Z" fill="#464468"/>
<path d="M59.6671 145.469C59.3852 145.468 59.109 145.355 58.869 145.145C58.6289 144.934 58.4343 144.633 58.3065 144.275L56.9676 140.477C56.8053 140.017 56.7638 139.491 56.8506 138.992C56.8566 138.954 56.8654 138.912 56.874 138.872L56.882 138.834C56.9057 138.734 56.9291 138.593 56.9561 138.429L56.9717 138.334C57.0707 137.723 57.194 136.962 57.4414 136.644C57.4723 136.603 57.5071 136.569 57.5448 136.542L67.254 128.161C67.4335 128.029 67.6296 127.95 67.8309 127.927C68.0322 127.905 68.2346 127.939 68.4264 128.029C68.8075 128.211 69.123 128.599 69.3041 129.11L71.756 136.305C71.9352 136.817 71.9646 137.41 71.8377 137.953C71.7108 138.496 71.438 138.945 71.079 139.202L60.3272 145.246C60.1226 145.394 59.8964 145.47 59.6671 145.469Z" fill="#2F2E41"/>
<path d="M52.3963 125.527C58.3746 125.527 63.221 118.626 63.221 110.113C63.221 101.6 58.3746 94.6992 52.3963 94.6992C46.418 94.6992 41.5716 101.6 41.5716 110.113C41.5716 118.626 46.418 125.527 52.3963 125.527Z" fill="#464468"/>
<path d="M49.6796 209.862H46.6942C46.292 209.861 45.9065 209.633 45.6221 209.229C45.3377 208.824 45.1777 208.275 45.1773 207.702V171.698C45.1777 171.125 45.3377 170.576 45.6221 170.171C45.9065 169.766 46.292 169.539 46.6942 169.538H49.6796C49.8676 169.537 50.0539 169.588 50.2286 169.687C50.5026 169.837 50.7398 170.098 50.911 170.437C51.0822 170.777 51.1799 171.18 51.1921 171.598C51.1957 171.631 51.1971 171.665 51.1965 171.698V207.702C51.1961 208.275 51.0361 208.824 50.7517 209.229C50.4674 209.633 50.0818 209.861 49.6796 209.862Z" fill="#464468"/>
<path d="M66.3194 187.789C66.3051 187.755 66.2896 187.722 66.273 187.691C66.232 187.554 66.1805 187.423 66.1192 187.302L61.0303 177.164L56.8375 168.815H49.6857L50.1913 169.82L51.0914 171.614L53.8805 177.167L59.8573 189.07L54.3174 204.917C54.0908 205.562 54.4772 206.489 55.175 206.984L57.8468 208.879C58.1121 209.072 58.4046 209.177 58.7024 209.185C59.0786 209.185 59.392 208.986 59.5236 208.609L66.4104 188.909C66.4647 188.727 66.4848 188.528 66.4689 188.332C66.4529 188.135 66.4014 187.948 66.3194 187.789Z" fill="#464468"/>
<path d="M41.9798 154.878C41.5838 154.876 41.2041 154.653 40.9216 154.258L36.871 148.726C36.6338 148.395 36.4803 147.962 36.4346 147.493C36.4234 147.396 36.4177 147.298 36.4174 147.2C36.4167 147.089 36.4226 146.977 36.4351 146.868C36.4805 146.413 36.6279 145.992 36.8553 145.667L45.4691 135.064C45.7025 134.721 46.2945 134.792 46.8168 134.855L46.8956 134.864C46.9919 134.879 47.0886 134.887 47.1854 134.888C47.2211 134.893 47.2626 134.89 47.3008 134.893C47.6632 134.929 48.0047 135.148 48.2639 135.511L50.3896 138.495C50.6757 138.897 50.838 139.445 50.8409 140.018C50.8437 140.59 50.687 141.141 50.4049 141.55L43.077 154.218C42.935 154.428 42.7646 154.595 42.576 154.709C42.3874 154.822 42.1845 154.88 41.9798 154.878Z" fill="#2F2E41"/>
<path d="M51.9667 116.402L51.9554 115.826C52.7079 115.796 53.3714 115.729 53.8699 115.21C54.0113 115.055 54.1275 114.858 54.2106 114.633C54.2937 114.408 54.3418 114.16 54.3516 113.906C54.3604 113.751 54.3439 113.595 54.3034 113.45C54.263 113.306 54.1997 113.176 54.1184 113.072C53.7875 112.674 53.255 112.803 52.8668 113.057L52.5321 113.275L53.174 106.596L53.5748 106.674L53.0288 112.356C53.5562 112.135 54.0448 112.23 54.3795 112.632C54.508 112.792 54.6089 112.992 54.6742 113.217C54.7394 113.441 54.7674 113.684 54.7558 113.926C54.744 114.267 54.6799 114.601 54.5681 114.903C54.4563 115.205 54.2995 115.469 54.1085 115.675C53.468 116.342 52.6356 116.375 51.9667 116.402Z" fill="#2F2E41"/>
<path d="M57.7353 107.165H55.5567V107.741H57.7353V107.165Z" fill="#2F2E41"/>
<path d="M50.8586 107.165H48.68V107.741H50.8586V107.165Z" fill="#2F2E41"/>
<path d="M62.2216 177.311H43.007C42.2698 177.311 41.6924 175.625 41.6924 173.473V146.494C41.6929 143.189 42.4327 139.969 43.8045 137.303C45.1763 134.636 47.1087 132.661 49.3219 131.663C49.2924 131.473 49.2774 131.28 49.2771 131.086C49.2776 130.361 49.4803 129.665 49.8405 129.152C50.2007 128.639 50.6891 128.351 51.1985 128.35H54.0301C54.5396 128.351 55.028 128.639 55.3882 129.152C55.7484 129.665 55.951 130.361 55.9516 131.086C55.9513 131.281 55.9362 131.474 55.9067 131.664C56.9758 132.144 57.9863 132.856 58.9022 133.777C59.0906 133.964 59.2764 134.164 59.4539 134.37C61.0263 136.165 62.2183 138.546 62.8974 141.248C63.0089 141.687 63.1078 142.141 63.1913 142.599L63.1913 142.599C63.4206 143.872 63.5365 145.181 63.5363 146.495V173.473C63.5363 175.571 62.9788 177.245 62.2639 177.304C62.2501 177.309 62.2359 177.312 62.2216 177.311Z" fill="#2F2E41"/>
<path d="M51.5019 187.103H43.8161C43.4675 187.103 43.1334 186.905 42.8869 186.555C42.6405 186.204 42.5018 185.728 42.5014 185.231V176.591C42.5018 176.095 42.6405 175.619 42.8869 175.268C43.1334 174.917 43.4675 174.72 43.8161 174.719H51.5019C51.8505 174.72 52.1846 174.917 52.4311 175.268C52.6776 175.619 52.8162 176.095 52.8166 176.591V185.231C52.8162 185.728 52.6776 186.204 52.4311 186.555C52.1846 186.905 51.8505 187.103 51.5019 187.103Z" fill="#2F2E41"/>
<path d="M56.239 187.299C55.9705 187.299 55.7085 187.182 55.488 186.964C55.2674 186.746 55.099 186.437 55.0052 186.079L52.8918 177.98C52.7708 177.514 52.7844 176.999 52.9296 176.548C53.0748 176.097 53.3397 175.746 53.6663 175.573L60.8709 171.761C61.1978 171.589 61.5593 171.608 61.8762 171.815C62.193 172.022 62.4394 172.399 62.5612 172.864L64.6745 180.963C64.7956 181.428 64.782 181.943 64.6368 182.395C64.4916 182.846 64.2266 183.197 63.9001 183.37L56.6955 187.182C56.5494 187.259 56.3948 187.299 56.239 187.299Z" fill="#2F2E41"/>
<path d="M47.3072 102.823C49.3133 101.172 51.7461 102.438 53.8183 103.131C56.0324 103.871 58.373 104.031 60.4599 102.536C62.1967 101.292 63.5759 98.8389 63.7412 96.0282C63.8958 93.401 62.8565 90.6016 61.099 89.616C59.3083 88.6119 57.029 89.9257 56.376 92.542L56.9305 92.4388C54.7844 88.4269 52.139 84.287 48.4476 83.5058C46.7914 83.1554 45.0238 83.4741 43.6087 84.8208C42.2823 86.083 41.4279 88.0322 40.9242 90.1547C40.3398 92.6174 40.1869 95.2542 40.0811 97.8333C40.0584 98.3887 40.6652 98.3869 40.6879 97.8333C40.854 93.7832 41.1235 88.8983 43.4489 86.0687C44.656 84.5999 46.2679 84.0885 47.8241 84.266C49.4772 84.4545 51.0099 85.4302 52.3388 86.8106C53.9312 88.4649 55.2194 90.6558 56.4066 92.8749C56.438 92.9456 56.483 93.002 56.5362 93.0375C56.5894 93.0729 56.6487 93.086 56.7069 93.0752C56.7652 93.0643 56.8201 93.03 56.8651 92.9763C56.9101 92.9225 56.9434 92.8515 56.9611 92.7717C57.4853 90.6716 59.3248 89.6921 60.7562 90.3559C62.375 91.1065 63.2702 93.7207 63.1344 96.0282C62.979 98.6709 61.5586 100.893 59.9165 101.951C57.9382 103.226 55.7706 102.914 53.7234 102.211C51.5488 101.463 49.0927 100.355 47.0009 102.077C46.9344 102.137 46.8867 102.231 46.8681 102.34C46.8494 102.449 46.8612 102.564 46.9009 102.66C46.9406 102.757 47.0052 102.828 47.081 102.859C47.1568 102.889 47.2379 102.876 47.3072 102.823Z" fill="#2F2E41"/>
<path d="M99.8971 20.7798C99.0472 20.7798 98.2055 21.0182 97.4203 21.4813C96.635 21.9445 95.9215 22.6233 95.3205 23.4791C94.7195 24.3349 94.2428 25.3509 93.9175 26.4691C93.5922 27.5872 93.4248 28.7857 93.4248 29.9959C93.4248 31.2062 93.5922 32.4047 93.9175 33.5228C94.2427 34.641 94.7195 35.657 95.3205 36.5128C95.9215 37.3686 96.635 38.0475 97.4202 38.5106C98.2055 38.9738 99.0471 39.2122 99.8971 39.2122H99.8971C101.614 39.2122 103.26 38.2412 104.474 36.5128C105.687 34.7844 106.369 32.4403 106.369 29.996C106.369 27.5517 105.687 25.2075 104.474 23.4791C103.26 21.7508 101.614 20.7798 99.8971 20.7798Z" fill="#F2F2F2"/>
<path d="M146.89 37.7727H112.91C112.481 37.7727 112.069 37.5299 111.766 37.0978C111.463 36.6657 111.292 36.0797 111.292 35.4686C111.292 34.8575 111.463 34.2715 111.766 33.8394C112.069 33.4073 112.481 33.1646 112.91 33.1646H146.89C147.319 33.1646 147.73 33.4073 148.034 33.8394C148.337 34.2715 148.508 34.8575 148.508 35.4686C148.508 36.0797 148.337 36.6657 148.034 37.0978C147.73 37.5299 147.319 37.7727 146.89 37.7727Z" fill="#F2F2F2"/>
<path d="M123.63 27.9802H112.91C112.481 27.9802 112.069 27.7374 111.766 27.3053C111.463 26.8732 111.292 26.2872 111.292 25.6761C111.292 25.065 111.463 24.479 111.766 24.0469C112.069 23.6148 112.481 23.3721 112.91 23.3721H123.63C124.059 23.3721 124.471 23.6148 124.774 24.0469C125.077 24.479 125.248 25.065 125.248 25.6761C125.248 26.2872 125.077 26.8732 124.774 27.3053C124.471 27.7374 124.059 27.9802 123.63 27.9802Z" fill="#F2F2F2"/>
<path d="M99.8971 59.373C99.0472 59.373 98.2055 59.6114 97.4203 60.0746C96.635 60.5377 95.9215 61.2166 95.3205 62.0724C94.7195 62.9282 94.2428 63.9442 93.9175 65.0623C93.5922 66.1805 93.4248 67.3789 93.4248 68.5892C93.4248 69.7995 93.5922 70.9979 93.9175 72.1161C94.2427 73.2343 94.7195 74.2502 95.3205 75.1061C95.9215 75.9619 96.635 76.6407 97.4202 77.1039C98.2055 77.567 99.0471 77.8054 99.8971 77.8054H99.8971C101.614 77.8054 103.26 76.8345 104.474 75.1061C105.687 73.3777 106.369 71.0335 106.369 68.5892C106.369 66.145 105.687 63.8008 104.474 62.0724C103.26 60.344 101.614 59.373 99.8971 59.373Z" fill="#F2F2F2"/>
<path d="M146.89 76.3654H112.91C112.481 76.3654 112.069 76.1227 111.766 75.6906C111.463 75.2585 111.292 74.6724 111.292 74.0614C111.292 73.4503 111.463 72.8643 111.766 72.4322C112.069 72.0001 112.481 71.7573 112.91 71.7573H146.89C147.319 71.7573 147.73 72.0001 148.034 72.4322C148.337 72.8643 148.508 73.4503 148.508 74.0614C148.508 74.6724 148.337 75.2585 148.034 75.6906C147.73 76.1227 147.319 76.3654 146.89 76.3654Z" fill="#F2F2F2"/>
<path d="M123.63 66.5729H112.91C112.481 66.5729 112.069 66.3302 111.766 65.8981C111.463 65.466 111.292 64.88 111.292 64.2689C111.292 63.6578 111.463 63.0718 111.766 62.6397C112.069 62.2076 112.481 61.9648 112.91 61.9648H123.63C124.059 61.9648 124.471 62.2076 124.774 62.6397C125.077 63.0718 125.248 63.6578 125.248 64.2689C125.248 64.88 125.077 65.466 124.774 65.8981C124.471 66.3302 124.059 66.5729 123.63 66.5729Z" fill="#F2F2F2"/>
<path d="M99.8971 136.559C98.1806 136.559 96.5343 137.53 95.3205 139.258C94.1067 140.986 93.4248 143.33 93.4248 145.775C93.4248 148.219 94.1067 150.563 95.3205 152.292C96.5343 154.02 98.1805 154.991 99.8971 154.991H99.8971C101.614 154.991 103.26 154.02 104.474 152.292C105.687 150.563 106.369 148.219 106.369 145.775C106.369 143.331 105.687 140.986 104.474 139.258C103.26 137.53 101.614 136.559 99.8971 136.559Z" fill="#F2F2F2"/>
<path d="M146.89 153.551H112.91C112.481 153.551 112.069 153.308 111.766 152.876C111.463 152.444 111.292 151.858 111.292 151.247C111.292 150.636 111.463 150.05 111.766 149.618C112.069 149.186 112.481 148.943 112.91 148.943H146.89C147.319 148.943 147.73 149.186 148.034 149.618C148.337 150.05 148.508 150.636 148.508 151.247C148.508 151.858 148.337 152.444 148.034 152.876C147.73 153.308 147.319 153.551 146.89 153.551Z" fill="#F2F2F2"/>
<path d="M123.63 143.758H112.91C112.481 143.758 112.069 143.516 111.766 143.084C111.463 142.652 111.292 142.066 111.292 141.454C111.292 140.843 111.463 140.257 111.766 139.825C112.069 139.393 112.481 139.15 112.91 139.15H123.63C124.059 139.15 124.471 139.393 124.774 139.825C125.077 140.257 125.248 140.843 125.248 141.454C125.248 142.066 125.077 142.652 124.774 143.084C124.471 143.516 124.059 143.758 123.63 143.758Z" fill="#F2F2F2"/>
<path d="M99.8971 175.151C99.0472 175.151 98.2055 175.39 97.4203 175.853C96.635 176.316 95.9215 176.995 95.3205 177.851C94.7195 178.707 94.2428 179.722 93.9175 180.841C93.5922 181.959 93.4248 183.157 93.4248 184.368C93.4248 185.578 93.5922 186.776 93.9175 187.894C94.2427 189.013 94.7195 190.029 95.3205 190.884C95.9215 191.74 96.635 192.419 97.4202 192.882C98.2055 193.345 99.0471 193.584 99.8971 193.584H99.8971C101.614 193.584 103.26 192.613 104.474 190.884C105.687 189.156 106.369 186.812 106.369 184.368C106.369 181.923 105.687 179.579 104.474 177.851C103.26 176.122 101.614 175.151 99.8971 175.151Z" fill="#F2F2F2"/>
<path d="M146.89 192.144H112.91C112.481 192.144 112.069 191.901 111.766 191.469C111.463 191.037 111.292 190.451 111.292 189.84C111.292 189.229 111.463 188.643 111.766 188.21C112.069 187.778 112.481 187.536 112.91 187.536H146.89C147.319 187.536 147.73 187.778 148.034 188.21C148.337 188.643 148.508 189.229 148.508 189.84C148.508 190.451 148.337 191.037 148.034 191.469C147.73 191.901 147.319 192.144 146.89 192.144Z" fill="#F2F2F2"/>
<path d="M123.63 182.351H112.91C112.481 182.351 112.069 182.109 111.766 181.676C111.463 181.244 111.292 180.658 111.292 180.047C111.292 179.436 111.463 178.85 111.766 178.418C112.069 177.986 112.481 177.743 112.91 177.743H123.63C124.059 177.743 124.471 177.986 124.774 178.418C125.077 178.85 125.248 179.436 125.248 180.047C125.248 180.658 125.077 181.244 124.774 181.676C124.471 182.109 124.059 182.351 123.63 182.351Z" fill="#F2F2F2"/>
<path d="M160.002 129.358H81.9303C81.0455 129.357 80.1972 128.856 79.5716 127.965C78.9459 127.074 78.594 125.866 78.593 124.606V88.8932C78.594 87.6333 78.9459 86.4254 79.5716 85.5345C80.1972 84.6437 81.0455 84.1425 81.9303 84.1411H160.002C160.887 84.1425 161.735 84.6437 162.361 85.5345C162.986 86.4254 163.338 87.6333 163.339 88.8932V124.606C163.338 125.866 162.986 127.074 162.361 127.965C161.735 128.856 160.887 129.357 160.002 129.358Z" fill="white"/>
<path d="M99.8971 97.5337C98.1806 97.5337 96.5343 98.5047 95.3205 100.233C94.1067 101.961 93.4248 104.306 93.4248 106.75C93.4248 109.194 94.1067 111.538 95.3205 113.267C96.5343 114.995 98.1805 115.966 99.8971 115.966H99.8971C101.614 115.966 103.26 114.995 104.474 113.267C105.687 111.538 106.369 109.194 106.369 106.75C106.369 104.306 105.687 101.961 104.474 100.233C103.26 98.5047 101.614 97.5337 99.8971 97.5337Z" fill="#464468"/>
<path d="M146.89 114.526H112.91C112.481 114.526 112.069 114.283 111.766 113.851C111.463 113.419 111.292 112.833 111.292 112.222C111.292 111.611 111.463 111.025 111.766 110.593C112.069 110.161 112.481 109.918 112.91 109.918H146.89C147.319 109.918 147.73 110.161 148.034 110.593C148.337 111.025 148.508 111.611 148.508 112.222C148.508 112.833 148.337 113.419 148.034 113.851C147.73 114.283 147.319 114.526 146.89 114.526Z" fill="#CCCCCC"/>
<path d="M123.63 104.734H112.91C112.481 104.734 112.069 104.491 111.766 104.059C111.463 103.627 111.292 103.041 111.292 102.43C111.292 101.818 111.463 101.232 111.766 100.8C112.069 100.368 112.481 100.125 112.91 100.125H123.63C124.059 100.125 124.471 100.368 124.774 100.8C125.077 101.232 125.248 101.818 125.248 102.43C125.248 103.041 125.077 103.627 124.774 104.059C124.471 104.491 124.059 104.734 123.63 104.734Z" fill="#CCCCCC"/>
<path d="M160.002 129.358H81.9303C81.0455 129.357 80.1972 128.856 79.5716 127.965C78.9459 127.074 78.594 125.866 78.593 124.606V88.8932C78.594 87.6333 78.9459 86.4254 79.5716 85.5345C80.1972 84.6437 81.0455 84.1425 81.9303 84.1411H160.002C160.887 84.1425 161.735 84.6437 162.361 85.5345C162.986 86.4254 163.338 87.6333 163.339 88.8932V124.606C163.338 125.866 162.986 127.074 162.361 127.965C161.735 128.856 160.887 129.357 160.002 129.358ZM81.9303 84.4291C81.0991 84.4305 80.3023 84.9012 79.7145 85.7381C79.1268 86.575 78.7962 87.7097 78.7953 88.8932V124.606C78.7962 125.79 79.1268 126.924 79.7145 127.761C80.3023 128.598 81.0991 129.069 81.9303 129.07H160.002C160.833 129.069 161.63 128.598 162.218 127.761C162.806 126.924 163.136 125.79 163.137 124.606V88.8932C163.136 87.7097 162.806 86.575 162.218 85.7381C161.63 84.9012 160.833 84.4305 160.002 84.4291H81.9303Z" fill="#3F3D56"/>
<path d="M99.283 110.578C99.1126 110.578 98.9467 110.499 98.8104 110.354L98.802 110.345L97.0221 108.406C96.8558 108.224 96.7471 107.956 96.7197 107.66C96.6923 107.364 96.7486 107.065 96.8762 106.828C97.0037 106.591 97.1921 106.436 97.4 106.396C97.6078 106.357 97.8181 106.437 97.9846 106.618L99.1374 107.877L101.862 102.816C101.925 102.699 102.004 102.601 102.094 102.527C102.183 102.453 102.283 102.405 102.386 102.385C102.489 102.366 102.593 102.376 102.693 102.414C102.794 102.452 102.888 102.518 102.97 102.608L102.97 102.608L102.954 102.642L102.971 102.608C103.137 102.79 103.246 103.058 103.273 103.354C103.301 103.65 103.245 103.95 103.117 104.187L99.9128 110.137C99.8387 110.274 99.7433 110.385 99.6342 110.461C99.5251 110.537 99.4052 110.577 99.2837 110.576L99.283 110.578Z" fill="white"/>
<path d="M196.798 210H0.202249C0.148607 210 0.0971614 209.97 0.0592305 209.916C0.0212997 209.862 -9.53674e-06 209.789 -9.53674e-06 209.712C-9.53674e-06 209.636 0.0212997 209.563 0.0592305 209.509C0.0971614 209.455 0.148607 209.424 0.202249 209.424H196.798C196.851 209.424 196.903 209.455 196.941 209.509C196.979 209.563 197 209.636 197 209.712C197 209.789 196.979 209.862 196.941 209.916C196.903 209.97 196.851 210 196.798 210Z" fill="#CCCCCC"/>
</g>
<defs>
<clipPath id="clip0_256_394">
<rect width="197" height="210" rx="3.85" fill="white"/>
</clipPath>
</defs>
</svg>
