<svg width="197" height="210" viewBox="0 0 197 210" fill="none" xmlns="http://www.w3.org/2000/svg">
<g clip-path="url(#clip0_256_347)">
<rect width="197" height="210" rx="3.85" fill="#DDF6F9"/>
<path d="M98.7415 5.87815C98.7324 6.56383 98.6237 7.24039 98.4216 7.86918C98.2194 8.49797 97.9276 9.06667 97.5631 9.54279C97.1985 10.0189 96.7682 10.3931 96.2968 10.6441C95.8254 10.895 95.3221 11.0178 94.8156 11.0053H76.6027C76.5367 11.003 76.4707 11.0007 76.4047 10.9938C76.234 10.9789 76.0644 10.9475 75.897 10.8999V2.17139C75.8969 1.82215 75.9756 1.48119 76.1226 1.19418C76.2696 0.907162 76.4778 0.687792 76.7194 0.56543H94.9544C95.9766 0.591595 96.9493 1.16564 97.6593 2.16162C98.3693 3.1576 98.7585 4.49419 98.7414 5.87815H98.7415Z" fill="#E6E6E6"/>
<path d="M194.898 1.19932e-05H77.4388C77.1857 -0.00100038 76.9347 0.0620879 76.6988 0.18602C76.2985 0.388771 75.9535 0.752263 75.71 1.22783C75.4665 1.70341 75.3362 2.26836 75.3363 2.84704V176.326C75.3365 177.081 75.5581 177.805 75.9524 178.339C76.3466 178.873 76.8813 179.173 77.4388 179.173H194.898C195.455 179.173 195.99 178.873 196.384 178.339C196.778 177.805 197 177.081 197 176.326V2.84704C197 2.09205 196.778 1.36805 196.384 0.83419C195.99 0.300327 195.455 0.000285656 194.898 1.19932e-05ZM196.159 176.326C196.159 176.779 196.026 177.213 195.789 177.533C195.553 177.853 195.232 178.034 194.898 178.034H77.4388C77.1044 178.034 76.7838 177.853 76.5474 177.533C76.3109 177.213 76.1778 176.779 76.1773 176.326V2.84704C76.1778 2.3942 76.3109 1.96011 76.5474 1.6399C76.7838 1.3197 77.1044 1.1395 77.4388 1.13882H194.898C195.232 1.1395 195.553 1.3197 195.789 1.6399C196.026 1.96011 196.159 2.3942 196.159 2.84704V176.326Z" fill="#E6E6E6"/>
<path d="M132.557 59.6042C134.081 59.6042 135.316 57.9316 135.316 55.8685C135.316 53.8053 134.081 52.1328 132.557 52.1328C131.033 52.1328 129.798 53.8053 129.798 55.8685C129.798 57.9316 131.033 59.6042 132.557 59.6042Z" fill="#6C63FF"/>
<path d="M144.054 59.6042C145.578 59.6042 146.813 57.9316 146.813 55.8685C146.813 53.8053 145.578 52.1328 144.054 52.1328C142.53 52.1328 141.295 53.8053 141.295 55.8685C141.295 57.9316 142.53 59.6042 144.054 59.6042Z" fill="#6C63FF"/>
<path d="M109.563 90.4811C111.087 90.4811 112.322 88.8086 112.322 86.7454C112.322 84.6823 111.087 83.0098 109.563 83.0098C108.039 83.0098 106.803 84.6823 106.803 86.7454C106.803 88.8086 108.039 90.4811 109.563 90.4811Z" fill="#6C63FF"/>
<path d="M121.06 90.4811C122.584 90.4811 123.819 88.8086 123.819 86.7454C123.819 84.6823 122.584 83.0098 121.06 83.0098C119.536 83.0098 118.3 84.6823 118.3 86.7454C118.3 88.8086 119.536 90.4811 121.06 90.4811Z" fill="#6C63FF"/>
<path d="M132.557 105.92C134.081 105.92 135.316 104.247 135.316 102.184C135.316 100.121 134.081 98.4482 132.557 98.4482C131.033 98.4482 129.798 100.121 129.798 102.184C129.798 104.247 131.033 105.92 132.557 105.92Z" fill="#6C63FF"/>
<path d="M144.054 105.92C145.578 105.92 146.813 104.247 146.813 102.184C146.813 100.121 145.578 98.4482 144.054 98.4482C142.53 98.4482 141.295 100.121 141.295 102.184C141.295 104.247 142.53 105.92 144.054 105.92Z" fill="#6C63FF"/>
<path d="M155.551 105.92C157.075 105.92 158.31 104.247 158.31 102.184C158.31 100.121 157.075 98.4482 155.551 98.4482C154.027 98.4482 152.792 100.121 152.792 102.184C152.792 104.247 154.027 105.92 155.551 105.92Z" fill="#6C63FF"/>
<path d="M86.4097 2.76042C86.3482 2.84369 86.3137 2.95663 86.3137 3.0744C86.3137 3.19216 86.3482 3.30511 86.4097 3.3884L86.4097 3.38843L87.8178 5.29474H84.3457C84.2588 5.29509 84.1757 5.34203 84.1143 5.42527C84.053 5.50851 84.0186 5.62126 84.0186 5.73881C84.0186 5.85636 84.053 5.96911 84.1143 6.05235C84.1757 6.13559 84.2588 6.18253 84.3457 6.18288H87.8178L86.4097 8.08919C86.3482 8.17246 86.3137 8.28541 86.3137 8.40319C86.3137 8.52096 86.3482 8.63391 86.4097 8.71718C86.4712 8.80046 86.5547 8.84725 86.6417 8.84725C86.7286 8.84725 86.8121 8.80047 86.8736 8.7172L88.8416 6.05281C88.9031 5.96953 88.9377 5.85658 88.9377 5.73881C88.9377 5.62104 88.9031 5.50809 88.8416 5.4248L86.8736 2.76042C86.8121 2.67715 86.7286 2.63037 86.6417 2.63037C86.5547 2.63037 86.4713 2.67715 86.4097 2.76042H86.4097Z" fill="white"/>
<path d="M169.569 63.8411H95.4786C95.1919 63.8411 94.9595 63.6712 94.9595 63.4616C94.9595 63.252 95.1919 63.082 95.4786 63.082H169.569C169.855 63.082 170.088 63.252 170.088 63.4616C170.088 63.6712 169.855 63.8411 169.569 63.8411Z" fill="#E6E6E6"/>
<path d="M169.569 47.0706H95.4786C95.1919 47.0706 94.9595 46.9006 94.9595 46.6911C94.9595 46.4815 95.1919 46.3115 95.4786 46.3115H169.569C169.855 46.3115 170.088 46.4815 170.088 46.6911C170.088 46.9006 169.855 47.0706 169.569 47.0706Z" fill="#E6E6E6"/>
<path d="M169.808 79.5046H95.3063C95.232 79.5046 95.1607 79.4647 95.1081 79.3935C95.0555 79.3223 95.026 79.2258 95.026 79.1251C95.026 79.0245 95.0555 78.9279 95.1081 78.8568C95.1607 78.7856 95.232 78.7456 95.3063 78.7456H169.808C169.882 78.7456 169.953 78.7856 170.006 78.8568C170.058 78.9279 170.088 79.0245 170.088 79.1251C170.088 79.2258 170.058 79.3223 170.006 79.3935C169.953 79.4647 169.882 79.5046 169.808 79.5046Z" fill="#E6E6E6"/>
<path d="M169.808 94.6888H95.3063C95.232 94.6888 95.1607 94.6488 95.1081 94.5776C95.0555 94.5064 95.026 94.4099 95.026 94.3092C95.026 94.2086 95.0555 94.112 95.1081 94.0409C95.1607 93.9697 95.232 93.9297 95.3063 93.9297H169.808C169.882 93.9297 169.953 93.9697 170.006 94.0409C170.058 94.112 170.088 94.2086 170.088 94.3092C170.088 94.4099 170.058 94.5064 170.006 94.5776C169.953 94.6488 169.882 94.6888 169.808 94.6888Z" fill="#E6E6E6"/>
<path d="M169.808 110.252H95.3063C95.232 110.252 95.1607 110.212 95.1081 110.141C95.0555 110.07 95.026 109.973 95.026 109.873C95.026 109.772 95.0555 109.676 95.1081 109.604C95.1607 109.533 95.232 109.493 95.3063 109.493H169.808C169.882 109.493 169.953 109.533 170.006 109.604C170.058 109.676 170.088 109.772 170.088 109.873C170.088 109.973 170.058 110.07 170.006 110.141C169.953 110.212 169.882 110.252 169.808 110.252Z" fill="#E6E6E6"/>
<path d="M161.118 109.47V46.9268C161.118 46.7968 161.243 46.6914 161.398 46.6914C161.553 46.6914 161.678 46.7968 161.678 46.9268V109.47C161.678 109.6 161.553 109.706 161.398 109.706C161.243 109.706 161.118 109.6 161.118 109.47Z" fill="#E6E6E6"/>
<path d="M179.504 109.47V46.9268C179.504 46.7968 179.63 46.6914 179.784 46.6914C179.939 46.6914 180.065 46.7968 180.065 46.9268V109.47C180.065 109.6 179.939 109.706 179.784 109.706C179.63 109.706 179.504 109.6 179.504 109.47Z" fill="#E6E6E6"/>
<path d="M138.13 109.47V46.9268C138.13 46.7968 138.256 46.6914 138.411 46.6914C138.566 46.6914 138.691 46.7968 138.691 46.9268V109.47C138.691 109.6 138.566 109.706 138.411 109.706C138.256 109.706 138.13 109.6 138.13 109.47Z" fill="#E6E6E6"/>
<path d="M126.917 109.47V46.9268C126.917 46.7968 127.043 46.6914 127.198 46.6914C127.352 46.6914 127.478 46.7968 127.478 46.9268V109.47C127.478 109.6 127.352 109.706 127.198 109.706C127.043 109.706 126.917 109.6 126.917 109.47Z" fill="#E6E6E6"/>
<path d="M115.143 125.354V46.9863C115.159 46.902 115.195 46.8272 115.246 46.7738C115.297 46.7204 115.359 46.6914 115.424 46.6914C115.488 46.6914 115.55 46.7204 115.601 46.7738C115.652 46.8272 115.688 46.902 115.704 46.9863V125.354C115.688 125.439 115.652 125.513 115.601 125.567C115.55 125.62 115.488 125.649 115.424 125.649C115.359 125.649 115.297 125.62 115.246 125.567C115.195 125.513 115.159 125.439 115.143 125.354Z" fill="#E6E6E6"/>
<path d="M103.369 125.354V46.9863C103.385 46.902 103.422 46.8272 103.472 46.7738C103.523 46.7204 103.585 46.6914 103.65 46.6914C103.714 46.6914 103.776 46.7204 103.827 46.7738C103.878 46.8272 103.914 46.902 103.93 46.9863V125.354C103.914 125.439 103.878 125.513 103.827 125.567C103.776 125.62 103.714 125.649 103.65 125.649C103.585 125.649 103.523 125.62 103.472 125.567C103.422 125.513 103.385 125.439 103.369 125.354Z" fill="#E6E6E6"/>
<path d="M95.3064 125.816C95.232 125.816 95.1607 125.777 95.108 125.706C95.0553 125.635 95.0256 125.538 95.0254 125.438C95.0253 125.337 95.0546 125.24 95.1071 125.169C95.1596 125.098 95.2308 125.057 95.3051 125.057L123.832 124.89C123.906 124.892 123.977 124.932 124.029 125.002C124.081 125.073 124.112 125.168 124.114 125.268C124.114 125.318 124.107 125.367 124.093 125.413C124.079 125.459 124.059 125.501 124.033 125.536C124.007 125.572 123.976 125.6 123.942 125.619C123.908 125.638 123.872 125.649 123.835 125.649L95.3076 125.816H95.3064Z" fill="#E6E6E6"/>
<path d="M116.163 30.4356C116.089 30.4357 116.017 30.3957 115.965 30.3246C115.912 30.2535 115.882 30.157 115.882 30.0563C115.882 29.9557 115.912 29.8591 115.964 29.7879C116.017 29.7167 116.088 29.6766 116.163 29.6765L156.173 29.6089H156.173C156.248 29.6088 156.319 29.6487 156.372 29.7199C156.424 29.791 156.454 29.8875 156.454 29.9881C156.454 30.0888 156.424 30.1854 156.372 30.2566C156.319 30.3278 156.248 30.3679 156.174 30.3679L116.163 30.4356H116.163Z" fill="#E6E6E6"/>
<path d="M129.711 154.196C128.6 154.196 127.514 153.75 126.59 152.915C125.667 152.079 124.947 150.891 124.522 149.501C124.096 148.112 123.985 146.582 124.202 145.107C124.419 143.632 124.954 142.277 125.739 141.213C126.525 140.149 127.525 139.425 128.615 139.131C129.704 138.838 130.834 138.989 131.86 139.564C132.886 140.14 133.763 141.115 134.381 142.365C134.998 143.616 135.327 145.087 135.327 146.591C135.327 147.59 135.182 148.579 134.9 149.501C134.617 150.424 134.204 151.263 133.682 151.969C133.161 152.675 132.541 153.235 131.86 153.617C131.179 154 130.448 154.196 129.711 154.196Z" fill="#E6E6E6"/>
<path d="M131.927 145.84H130.265V143.59C130.265 143.391 130.206 143.2 130.102 143.06C129.999 142.919 129.858 142.84 129.711 142.84C129.564 142.84 129.423 142.919 129.319 143.06C129.215 143.2 129.157 143.391 129.157 143.59V145.84H127.495C127.348 145.84 127.207 145.919 127.103 146.06C126.999 146.201 126.94 146.391 126.94 146.59C126.94 146.789 126.999 146.98 127.103 147.121C127.207 147.261 127.348 147.34 127.495 147.34H129.157V149.591C129.156 149.689 129.171 149.787 129.198 149.878C129.226 149.969 129.267 150.052 129.318 150.122C129.37 150.192 129.431 150.247 129.498 150.285C129.566 150.323 129.638 150.342 129.711 150.342C129.784 150.342 129.856 150.323 129.923 150.285C129.99 150.247 130.051 150.192 130.103 150.122C130.154 150.052 130.195 149.969 130.223 149.878C130.251 149.787 130.265 149.689 130.265 149.591V147.34H131.927C132.074 147.34 132.215 147.261 132.319 147.121C132.422 146.98 132.481 146.789 132.481 146.59C132.481 146.391 132.422 146.201 132.319 146.06C132.215 145.919 132.074 145.84 131.927 145.84Z" fill="white"/>
<path d="M142.606 154.196C141.495 154.196 140.409 153.75 139.485 152.915C138.562 152.079 137.842 150.891 137.417 149.501C136.992 148.112 136.881 146.582 137.097 145.107C137.314 143.632 137.849 142.277 138.634 141.213C139.42 140.149 140.421 139.425 141.51 139.131C142.6 138.838 143.729 138.989 144.755 139.564C145.782 140.14 146.659 141.115 147.276 142.365C147.893 143.616 148.222 145.087 148.222 146.591C148.222 147.59 148.077 148.579 147.795 149.501C147.513 150.424 147.099 151.263 146.577 151.969C146.056 152.675 145.437 153.235 144.755 153.617C144.074 154 143.343 154.196 142.606 154.196Z" fill="#E6E6E6"/>
<path d="M145.449 149.826L143.986 147.507C144.328 146.851 144.477 146.045 144.402 145.247C144.328 144.45 144.036 143.72 143.584 143.199C143.132 142.679 142.552 142.406 141.959 142.436C141.366 142.465 140.802 142.794 140.379 143.357C139.956 143.921 139.704 144.678 139.672 145.481C139.641 146.283 139.833 147.072 140.21 147.693C140.587 148.314 141.121 148.721 141.709 148.835C142.297 148.948 142.894 148.76 143.385 148.307L144.809 150.565C144.882 150.679 144.985 150.75 145.096 150.761C145.206 150.772 145.316 150.724 145.401 150.626C145.485 150.528 145.538 150.389 145.547 150.239C145.556 150.089 145.52 149.941 145.449 149.826ZM140.503 145.641C140.503 145.228 140.594 144.825 140.763 144.481C140.933 144.138 141.173 143.871 141.455 143.713C141.737 143.555 142.047 143.513 142.346 143.594C142.645 143.674 142.92 143.873 143.135 144.165C143.351 144.457 143.498 144.829 143.557 145.234C143.617 145.639 143.586 146.059 143.47 146.44C143.353 146.821 143.155 147.147 142.902 147.377C142.648 147.606 142.35 147.729 142.045 147.729C141.636 147.728 141.245 147.508 140.955 147.116C140.666 146.725 140.504 146.195 140.503 145.641Z" fill="white"/>
<path d="M116.163 154.946C116.089 154.946 116.017 154.906 115.965 154.835C115.912 154.764 115.882 154.667 115.882 154.567C115.882 154.466 115.912 154.37 115.964 154.298C116.017 154.227 116.088 154.187 116.163 154.187L156.173 154.119H156.173C156.248 154.119 156.319 154.159 156.372 154.23C156.424 154.301 156.454 154.398 156.454 154.498C156.454 154.599 156.424 154.696 156.372 154.767C156.319 154.838 156.248 154.878 156.174 154.878L116.163 154.946H116.163Z" fill="#E6E6E6"/>
<path d="M64.9615 204.611L68.5377 204.611L70.239 185.933L64.9609 185.933L64.9615 204.611Z" fill="#FFB6B6"/>
<path d="M64.0506 203.029V209.303H75.5806V209.105C75.5804 207.494 75.1075 205.948 74.2659 204.809C73.4242 203.67 72.2828 203.029 71.0925 203.029L68.9844 200.866L68.8751 200.926L65.057 203.029H64.0506Z" fill="#2F2E41"/>
<path d="M32.6496 198.315L35.8502 200.475L43.5259 184.787L38.8021 181.599L32.6496 198.315Z" fill="#FFB6B6"/>
<path d="M30.2876 201.967L40.6066 208.929L40.6711 208.754C40.9343 208.04 41.0911 207.263 41.1324 206.467C41.1737 205.67 41.0988 204.871 40.9119 204.114C40.7249 203.357 40.4297 202.658 40.043 202.055C39.6563 201.453 39.1858 200.96 38.6583 200.604L37.4837 197.396L37.3603 197.385L33.2563 196.956L33.1722 196.899L32.3536 196.349L30.2876 201.967Z" fill="#2F2E41"/>
<path d="M67.3869 104.219L47.6681 105.153L47.5307 104.883C47.5307 104.883 45.8487 110.197 45.8487 114.753C45.8487 116.267 46.6266 126.173 46.2311 128.047C46.182 128.28 46.5203 128.851 46.4094 129.937C46.3374 130.641 45.94 130.099 45.8487 131.076C45.7832 131.776 46.4825 132.163 46.4094 132.974C46.3294 133.859 45.3674 136.727 45.2808 137.712C44.3589 148.199 43.1314 163.392 43.1314 163.392C43.1314 163.392 38.2013 181.273 37.1584 181.563C35.4079 182.05 34.226 186.361 35.1961 187.257C35.658 187.684 41.6282 190.555 41.6282 190.555C41.9562 190.636 42.9824 189.939 42.3287 188.29C42.2083 187.987 42.9261 188.759 43.0454 188.396C43.1722 188.01 42.9232 186.472 43.0685 186.044C44.3732 182.193 46.3764 176.857 48.2748 174.117C51.0797 170.069 52.856 164.913 53.3445 159.402L57.6987 126.708L59.1911 135.877L60.4259 137.529L60.0872 141.382L60.1456 145.121L63.2292 160.685C63.2292 160.685 63.6917 189.75 62.9489 190.673C62.5466 191.173 60.8395 197.331 64.0702 197.886L69.9399 197.273C69.9399 197.273 70.7307 195.016 70.3353 194.213C69.9399 193.41 69.9636 193.629 70.446 192.314C70.9285 191 70.7308 188.773 70.7308 188.773C71.4996 178.305 71.803 167.785 71.6392 157.268C71.3449 139.995 69.5618 120.152 69.5618 119.747C69.5469 119.334 69.6031 118.922 69.7261 118.543V117.453L68.9687 113.589L67.3869 104.219Z" fill="#2F2E41"/>
<path d="M41.858 113.931C41.6926 113.548 41.5912 113.121 41.5609 112.68C41.5306 112.238 41.5722 111.793 41.6827 111.376C41.7932 110.959 41.9699 110.579 42.2003 110.264C42.4308 109.95 42.7095 109.707 43.0167 109.554L42.875 90.3682L46.3697 93.3619L45.968 111.546C46.1238 112.262 46.0804 113.03 45.8458 113.705C45.6113 114.381 45.2019 114.916 44.6953 115.21C44.1887 115.504 43.62 115.536 43.0971 115.301C42.5741 115.065 42.1333 114.577 41.858 113.931Z" fill="#FFB8B8"/>
<path d="M42.6557 105.889L42.9532 105.869L42.9886 105.87L44.0892 105.865L45.9019 105.86L46.0332 105.857L46.0924 105.873L46.7112 106.018L46.7368 105.794L47.9431 102.674L48.8705 100.946L48.5331 98.9107L47.8676 97.7883L48.9979 95.9336L49.1407 95.0176L50.0867 88.9931L53.2226 69.0112L53.2228 68.9992L53.2887 68.5753L54.3085 62.0838L53.9943 60.4515L53.6442 58.6595C53.4202 57.5217 52.9011 56.5313 52.1819 55.8695C51.8698 55.5835 51.5262 55.3663 51.164 55.2257C50.7022 55.0405 50.2172 54.9865 49.7393 55.067L49.734 55.0692C49.4628 55.1148 49.1963 55.202 48.9397 55.3291L48.8375 55.3831C48.6954 55.4611 48.5571 55.5513 48.4235 55.653C48.0093 55.9649 47.645 56.3853 47.3519 56.8896C47.0588 57.394 46.8427 57.9722 46.7162 58.5907L43.3935 63.6026L42.8091 66.4385L42.6212 67.3493L42.0188 72.2044L42.0278 91.311L41.9206 92.1766L41.7681 96.9732L42.364 98.0728L41.6907 99.4058L41.6677 100.137L41.6631 100.326L42.5623 101.562L42.6197 104.229L42.6557 105.889Z" fill="#3F3D56"/>
<path d="M45.9015 110.465C50.8804 111.631 54.2191 111.187 56.2737 107.048C58.9543 102.426 63.829 107.884 67.9419 109.913L68.4297 109.199L69.2595 107.988L68.497 106.819L69.2595 104.564L68.6231 101.782L67.8102 101.581L68.0288 99.1854L68.3708 97.7846L67.3672 96.2928L66.515 92.5689L67.129 84.7756C67.9691 74.0932 66.3412 63.321 62.4699 53.9442L60.1403 51.1123L59.1732 49.9355L57.8752 46.6558L56.5044 46.8721L52.7928 47.4529L52.6667 47.8629L51.7556 50.839L48.4459 55.6533C47.9777 56.3342 47.6221 57.1422 47.4025 58.0237C47.1828 58.9052 47.1043 59.8399 47.1722 60.7656L47.2675 62.0639L47.3376 62.9977L47.6684 67.4922L49.0168 85.8537L49.1177 86.8293L50.2026 97.3861C48.4393 99.694 48.332 99.1905 47.5835 103.252C47.4994 103.704 46.5238 104.71 46.4621 105.15C46.3752 105.773 45.9015 110.465 45.9015 110.465Z" fill="#3F3D56"/>
<path d="M56.0106 44.7211C59.5709 44.7211 62.4571 40.8128 62.4571 35.9917C62.4571 31.1705 59.5709 27.2622 56.0106 27.2622C52.4502 27.2622 49.564 31.1705 49.564 35.9917C49.564 40.8128 52.4502 44.7211 56.0106 44.7211Z" fill="#FFB6B6"/>
<path d="M49.2661 29.4204C50.1314 28.2004 51.5137 27.5987 52.6874 28.1777C52.9498 27.1606 53.4134 26.2606 54.0274 25.5755C54.6415 24.8905 55.3826 24.4467 56.17 24.2926C56.9574 24.1384 57.761 24.2797 58.4932 24.7011C59.2254 25.1225 59.8582 25.8078 60.3227 26.6825C60.5351 26.5534 60.7685 26.5007 61.0003 26.5295C61.2322 26.5584 61.4546 26.6678 61.6461 26.8472C62.0262 27.2132 62.3324 27.7025 62.5367 28.2703C63.0638 29.6261 63.3094 31.1502 63.2476 32.6801C63.1857 34.21 62.8187 35.6886 62.1855 36.9585C62.4377 36.2687 61.7284 37.4567 61.0371 37.1455C60.4432 36.9347 58.0039 34.8167 57.3951 34.9237C56.7865 35.0308 56.589 34.3661 55.9935 34.1645C55.4103 33.9119 53.9214 37.1769 53.623 39.3372C53.5664 39.7466 53.4291 40.2553 53.1216 40.2646C52.7429 40.2761 52.6295 39.5416 52.3101 39.2658C52.1596 39.1621 51.9851 39.1416 51.8236 39.2087C51.6621 39.2757 51.5262 39.425 51.4444 39.6251C51.3697 39.8308 51.3324 40.0576 51.3356 40.2868C51.3387 40.5159 51.3823 40.7407 51.4625 40.9425C51.6258 41.3435 51.8357 41.7062 52.0844 42.0166L51.9189 42.1396C51.756 42.2976 51.5576 42.374 51.3577 42.3556C51.1578 42.3372 50.9688 42.2253 50.8231 42.0389C50.2075 42.415 48.5329 40.2937 48.7552 39.0103C48.2876 37.4372 48.0319 35.7634 48.0002 34.0682C47.9744 32.3582 48.4265 30.6982 49.2661 29.4204Z" fill="#2F2E41"/>
<path d="M96.5554 81.4542C96.2431 81.5875 95.9131 81.6264 95.5886 81.5683C95.264 81.5101 94.9529 81.3563 94.677 81.1177C94.4011 80.8791 94.1672 80.5615 93.9917 80.1872C93.8163 79.8129 93.7036 79.3911 93.6615 78.9515L79.8162 74.8736L82.7486 70.9253L95.7518 75.4978C96.3019 75.4512 96.8455 75.6794 97.2797 76.1392C97.7138 76.599 98.0083 77.2585 98.1074 77.9927C98.2064 78.7269 98.1031 79.4848 97.8171 80.1228C97.531 80.7608 97.0821 81.2345 96.5554 81.4542Z" fill="#FFB8B8"/>
<path d="M59.1391 54.3892C58.3366 54.4288 57.5667 54.8294 56.9512 55.5278C56.6106 55.9101 56.3265 56.3764 56.1141 56.9019C55.8803 57.472 55.7345 58.1004 55.6854 58.7491L55.6855 58.7529C55.6138 59.7082 55.7526 60.6709 56.0844 61.5195C56.4163 62.3681 56.9263 63.0647 57.5501 63.5212L62.1111 66.8681L62.6888 67.2912C66.5749 72.6546 73.1277 75.4583 80.666 77.3183L84.9999 78.9237L86.4569 78.1914L86.8097 80.0672L88.2604 80.1314L89.0493 79.9094L90.6999 79.0329L91.015 78.1745L91.0148 78.1707L91.6922 74.1013L91.6968 74.0744L91.6967 74.0706L91.8546 73.1396L90.9238 72.5564L90.1141 71.0917L88.6499 71.1315L87.3146 71.2889L86.9235 70.0497L70.0032 59.4473L66.4997 57.2499L66.491 57.2429L66.3241 57.1369L61.7537 54.2734L60.5094 54.3269L59.1391 54.3892Z" fill="#3F3D56"/>
<path d="M96.1139 86.1769C97.6378 86.1769 98.8732 84.5044 98.8732 82.4413C98.8732 80.3781 97.6378 78.7056 96.1139 78.7056C94.59 78.7056 93.3546 80.3781 93.3546 82.4413C93.3546 84.5044 94.59 86.1769 96.1139 86.1769Z" fill="#6C63FF"/>
<path d="M17.0141 207.381C14.9897 207.623 12.951 207.249 11.047 206.287C9.14288 205.326 7.4215 203.8 6.00855 201.822C4.16102 199.184 2.89317 195.789 1.66705 192.506C1.31013 191.55 0.941188 190.562 0.565847 189.615C0.147383 188.583 -0.0332199 187.405 0.047305 186.232C0.12783 185.059 0.465792 183.946 1.01765 183.036C1.54651 182.126 2.26447 181.452 3.07902 181.099C3.89357 180.747 4.76739 180.733 5.58789 181.059L5.76681 181.129L7.37708 189.637C7.61731 188.368 8.13293 185.509 8.45855 182.707L8.4859 182.473L8.64625 182.569C10.3276 183.577 11.9086 184.867 13.352 186.409C15.9088 189.186 17.9884 192.684 19.4461 196.66C20.9039 200.635 21.7048 204.993 21.7933 209.43L21.7976 209.694L17.0141 207.381Z" fill="#F2F2F2"/>
<path d="M78.4761 209.883L0.333818 209.999C0.245293 209.999 0.16039 209.952 0.0977931 209.867C0.0351963 209.782 3.05176e-05 209.667 3.05176e-05 209.548C3.05176e-05 209.428 0.0351963 209.313 0.0977931 209.228C0.16039 209.143 0.245293 209.096 0.333818 209.096L78.4761 208.979C78.5645 208.979 78.6491 209.027 78.7115 209.112C78.7739 209.197 78.809 209.311 78.809 209.431C78.809 209.551 78.7739 209.665 78.7115 209.75C78.6491 209.835 78.5645 209.882 78.4761 209.883Z" fill="#CACACA"/>
<path d="M143.597 25.3645H128.739C128.405 25.3645 128.084 25.1845 127.847 24.8642C127.611 24.544 127.478 24.1096 127.478 23.6566C127.478 23.2036 127.611 22.7692 127.847 22.449C128.084 22.1287 128.405 21.9487 128.739 21.9487H143.597C143.932 21.9487 144.252 22.1287 144.489 22.449C144.726 22.7692 144.858 23.2036 144.858 23.6566C144.858 24.1096 144.726 24.544 144.489 24.8642C144.252 25.1845 143.932 25.3645 143.597 25.3645Z" fill="#E6E6E6"/>
<path d="M190.394 10.8576C189.783 10.8576 189.186 10.6124 188.678 10.1529C188.17 9.69345 187.774 9.04038 187.54 8.27632C187.306 7.51225 187.245 6.67149 187.364 5.86036C187.484 5.04922 187.778 4.30416 188.21 3.71936C188.642 3.13457 189.192 2.73632 189.791 2.57498C190.39 2.41363 191.011 2.49644 191.576 2.81293C192.14 3.12942 192.622 3.66537 192.962 4.35301C193.301 5.04066 193.482 5.84911 193.482 6.67613C193.482 7.78513 193.157 8.84871 192.578 9.63289C191.998 10.4171 191.213 10.8576 190.394 10.8576Z" fill="#E6E6E6"/>
</g>
<defs>
<clipPath id="clip0_256_347">
<rect width="197" height="210" rx="3.85" fill="white"/>
</clipPath>
</defs>
</svg>
