<svg width="197" height="210" viewBox="0 0 197 210" fill="none" xmlns="http://www.w3.org/2000/svg">
<g clip-path="url(#clip0_256_291)">
<rect width="197" height="210" rx="3.85059" fill="#DDF6F9"/>
<path d="M177.78 37.1201H173.105C173.32 37.9609 173.402 38.8731 173.344 39.7764C173.286 40.6797 173.089 41.5463 172.772 42.2999C172.454 43.0536 172.025 43.6711 171.523 44.0981C171.021 44.5251 170.46 44.7485 169.891 44.7485H149.374C148.804 44.7485 148.244 44.5251 147.742 44.0981C147.239 43.6711 146.81 43.0536 146.493 42.2999C146.175 41.5463 145.979 40.6797 145.921 39.7764C145.863 38.8731 145.945 37.9609 146.16 37.1201H141.794C139.856 37.1201 137.997 38.348 136.627 40.5337C135.257 42.7194 134.487 45.6839 134.487 48.7749V196.49C134.487 199.581 135.257 202.545 136.627 204.731C137.997 206.916 139.856 208.144 141.794 208.144H177.78C179.717 208.144 181.576 206.916 182.946 204.731C184.316 202.545 185.086 199.581 185.086 196.49V48.7749C185.086 45.6839 184.316 42.7194 182.946 40.5337C181.576 38.348 179.717 37.1201 177.78 37.1201Z" fill="#F0F0F0"/>
<path d="M177.822 93.6901C176.909 89.5058 175.434 85.6895 173.501 82.5074C171.569 79.3254 169.224 76.8541 166.631 75.266C164.038 73.6778 161.259 73.011 158.488 73.3121C155.717 73.6132 153.021 74.8749 150.587 77.0092C148.153 79.1435 146.04 82.0991 144.395 85.6698C142.751 89.2405 141.615 93.3405 141.066 97.6837C140.517 102.027 140.568 106.509 141.217 110.817C141.865 115.125 143.095 119.156 144.82 122.628C144.992 122.972 145.17 123.317 145.352 123.651C145.366 123.672 145.376 123.694 145.389 123.716C145.836 124.537 146.311 125.319 146.812 126.057C146.942 126.248 147.08 126.445 147.217 126.631C147.477 127.003 147.744 127.358 148.022 127.697C148.132 127.834 148.238 127.97 148.351 128.102C148.79 128.632 149.246 129.124 149.716 129.594L149.736 129.611C149.87 129.742 150.007 129.873 150.144 129.999C150.391 130.234 150.645 130.458 150.898 130.672L151.059 130.803C151.43 131.109 151.807 131.399 152.194 131.667C152.273 131.722 152.359 131.776 152.437 131.831C152.444 131.836 152.448 131.836 152.454 131.842C152.636 131.962 152.818 132.077 153.003 132.186C153.611 132.557 154.231 132.874 154.861 133.138C156.468 133.821 158.124 134.167 159.787 134.166C160.394 134.166 160.994 134.122 161.587 134.029C162.942 133.83 164.279 133.399 165.577 132.744C165.58 132.744 165.584 132.739 165.587 132.739C166.407 132.322 167.207 131.816 167.983 131.224C167.987 131.219 167.994 131.219 167.997 131.213C168.172 131.082 168.34 130.94 168.511 130.803C168.539 130.781 168.566 130.759 168.593 130.737C168.731 130.623 168.868 130.508 169.005 130.387C169.348 130.087 169.684 129.769 170.016 129.43C170.109 129.343 170.198 129.25 170.29 129.152C170.421 129.015 170.551 128.873 170.678 128.725C170.846 128.539 171.014 128.348 171.178 128.151C171.23 128.091 171.284 128.031 171.336 127.965C174.547 124.076 176.905 118.666 178.07 112.509C179.235 106.351 179.148 99.7638 177.822 93.6902L177.822 93.6901Z" fill="white"/>
<path d="M169.684 126.696C168.06 125.331 166.364 124.193 164.617 123.295L164.394 119.364L155.358 117.811L154.21 122.836L150.967 124.777C150.851 124.847 150.74 124.939 150.638 125.05H150.634C150.453 125.246 150.299 125.497 150.181 125.791C150.063 126.084 149.984 126.413 149.949 126.757C149.914 127.098 149.922 127.448 149.973 127.785L150.144 128.906C150.391 129.141 150.645 129.365 150.898 129.578L151.059 129.709C151.43 130.016 151.807 130.305 152.194 130.573C152.273 130.628 152.359 130.683 152.437 130.737C152.444 130.743 152.448 130.743 152.455 130.748C152.636 130.869 152.818 130.983 153.003 131.093C153.611 131.463 154.231 131.781 154.861 132.044C156.468 132.727 158.124 133.073 159.787 133.072C160.394 133.072 160.994 133.029 161.587 132.936C162.942 132.736 164.279 132.305 165.577 131.651C165.58 131.651 165.584 131.645 165.587 131.645C166.407 131.229 167.207 130.723 167.983 130.13C167.987 130.125 167.994 130.125 167.997 130.12C168.172 129.988 168.34 129.846 168.511 129.709C168.539 129.688 168.566 129.666 168.593 129.644C168.731 129.529 168.868 129.414 169.005 129.294C169.348 128.993 169.684 128.676 170.016 128.337C170.109 128.249 170.198 128.156 170.29 128.058C170.421 127.921 170.551 127.779 170.678 127.631C170.359 127.303 170.026 126.992 169.684 126.696Z" fill="#E4E4E4"/>
<path d="M152.725 129.119L152.16 125.045H150.682C150.667 125.045 150.652 125.047 150.638 125.05H150.634C150.103 125.122 149.592 125.404 149.146 125.871C148.844 126.178 148.576 126.562 148.351 127.008C148.79 127.538 149.246 128.031 149.716 128.501L149.736 128.517C149.87 128.649 150.007 128.78 150.144 128.906C150.391 129.141 150.645 129.365 150.898 129.578L151.059 129.709C151.43 130.016 151.807 130.305 152.194 130.573C152.273 130.628 152.359 130.683 152.437 130.737C152.444 130.743 152.448 130.743 152.455 130.748C152.636 130.869 152.818 130.983 153.003 131.093L152.725 129.119Z" fill="#E4E4E4"/>
<path d="M159.522 115.324C163.116 115.324 166.029 110.677 166.029 104.943C166.029 99.2098 163.116 94.562 159.522 94.562C155.927 94.562 153.014 99.2098 153.014 104.943C153.014 110.677 155.927 115.324 159.522 115.324Z" fill="#A0616A"/>
<path d="M155.152 99.8871C155.826 101.159 156.966 101.518 158.018 101.665C160.154 101.964 163.259 101.479 165.347 100.71C165.496 103.014 165.089 105.497 165.94 107.392C166.339 105.098 166.57 102.739 166.631 100.36C166.694 99.3397 166.611 98.3096 166.387 97.3485C166.267 96.8669 166.065 96.4485 165.803 96.141C165.542 95.8335 165.231 95.6492 164.907 95.609C165.392 95.0222 165.96 94.6349 166.561 94.4812L164.495 92.8247L165.025 91.9557L161.284 91.5905L162.368 90.4925C160.737 90.135 159.087 90.0519 157.445 90.2446C156.683 90.3342 155.886 90.5053 155.268 91.2099C154.651 91.9145 154.294 93.315 154.677 94.3495C154.197 94.4752 153.745 94.7944 153.364 95.2768C152.983 95.7591 152.685 96.3887 152.499 97.1059C152.264 98.2459 152.207 99.4602 152.334 100.643C152.475 102.541 152.751 104.407 153.158 106.205L155.152 99.8871Z" fill="#2F2E41"/>
<path d="M177.822 93.6901C176.909 89.5058 175.434 85.6895 173.501 82.5074C171.569 79.3254 169.224 76.8541 166.631 75.266C164.038 73.6778 161.259 73.011 158.488 73.3121C155.717 73.6132 153.021 74.8749 150.587 77.0092C148.153 79.1435 146.04 82.0991 144.395 85.6698C142.751 89.2405 141.615 93.3405 141.066 97.6837C140.517 102.027 140.568 106.509 141.217 110.817C141.865 115.125 143.095 119.156 144.82 122.628C144.992 122.972 145.17 123.317 145.352 123.651C145.366 123.672 145.376 123.694 145.389 123.716C145.836 124.537 146.311 125.319 146.812 126.057C146.942 126.248 147.08 126.445 147.217 126.631C147.477 127.003 147.744 127.358 148.022 127.697C148.132 127.834 148.238 127.97 148.351 128.102C148.79 128.632 149.246 129.124 149.716 129.594L149.736 129.611C149.87 129.742 150.007 129.873 150.144 129.999C150.391 130.234 150.645 130.458 150.898 130.672L151.059 130.803C151.43 131.109 151.807 131.399 152.194 131.667C152.273 131.722 152.359 131.776 152.437 131.831C152.444 131.836 152.448 131.836 152.454 131.842C152.636 131.962 152.818 132.077 153.003 132.186C153.611 132.557 154.231 132.874 154.861 133.138C156.468 133.821 158.124 134.167 159.787 134.166C160.394 134.166 160.994 134.122 161.587 134.029C162.942 133.83 164.279 133.399 165.577 132.744C165.58 132.744 165.584 132.739 165.587 132.739C166.407 132.322 167.207 131.816 167.983 131.224C167.987 131.219 167.994 131.219 167.997 131.213C168.172 131.082 168.34 130.94 168.511 130.803C168.539 130.781 168.566 130.759 168.593 130.737C168.731 130.623 168.868 130.508 169.005 130.387C169.348 130.087 169.684 129.769 170.016 129.43C170.109 129.343 170.198 129.25 170.29 129.152C170.421 129.015 170.551 128.873 170.678 128.725C170.846 128.539 171.014 128.348 171.178 128.151C171.23 128.091 171.284 128.031 171.336 127.965C174.547 124.076 176.905 118.666 178.07 112.509C179.235 106.351 179.148 99.7638 177.822 93.6902L177.822 93.6901ZM170.705 126.636C170.592 126.778 170.476 126.915 170.359 127.041C170.246 127.178 170.133 127.309 170.016 127.429C169.917 127.544 169.817 127.653 169.714 127.757L169.684 127.79C169.608 127.872 169.533 127.949 169.457 128.025C169.173 128.309 168.885 128.583 168.593 128.845C168.563 128.873 168.532 128.9 168.501 128.927C168.371 129.042 168.24 129.152 168.11 129.261C168.093 129.277 168.072 129.288 168.055 129.305L168.035 129.321C167.87 129.458 167.702 129.589 167.534 129.715C166.886 130.213 166.219 130.644 165.536 131.005C165.447 131.054 165.357 131.104 165.268 131.147C164.04 131.77 162.774 132.181 161.491 132.372C160.929 132.454 160.359 132.498 159.787 132.498C158.214 132.503 156.648 132.176 155.128 131.525C154.349 131.2 153.585 130.787 152.842 130.289C152.804 130.262 152.763 130.24 152.725 130.212C152.684 130.185 152.646 130.163 152.609 130.136C152.568 130.108 152.53 130.081 152.489 130.048C152.167 129.824 151.848 129.578 151.536 129.321L151.385 129.195C151.004 128.878 150.631 128.539 150.268 128.178C150.161 128.074 150.052 127.965 149.949 127.85C149.921 127.823 149.897 127.795 149.87 127.768C149.626 127.511 149.383 127.243 149.147 126.964C148.986 126.773 148.824 126.581 148.667 126.385C148.403 126.067 148.149 125.728 147.902 125.378C147.772 125.203 147.645 125.012 147.522 124.832C147.036 124.116 146.576 123.356 146.144 122.557C146 122.294 145.859 122.032 145.725 121.759C145.695 121.704 145.666 121.648 145.64 121.589C143.412 117.106 142.073 111.666 141.792 105.963C141.51 100.26 142.3 94.553 144.061 89.5693C145.821 84.5856 148.472 80.5512 151.676 77.9806C154.879 75.4101 158.49 74.4199 162.048 75.1363C165.606 75.8527 168.949 78.2432 171.652 82.0031C174.355 85.7629 176.294 90.7216 177.223 96.2468C178.152 101.772 178.028 107.613 176.867 113.026C175.706 118.438 173.561 123.176 170.705 126.636H170.705Z" fill="#E4E4E4"/>
<path d="M173 158.048H146.629C145.79 158.046 144.986 157.514 144.393 156.567C143.8 155.621 143.467 154.338 143.467 153C143.467 151.662 143.8 150.378 144.393 149.432C144.986 148.485 145.79 147.953 146.629 147.952H173C173.839 147.952 174.644 148.484 175.238 149.43C175.831 150.377 176.165 151.661 176.165 153C176.165 154.338 175.831 155.622 175.238 156.569C174.644 157.516 173.839 158.048 173 158.048Z" fill="white"/>
<path d="M173 173.613H146.629C145.79 173.611 144.986 173.079 144.393 172.132C143.8 171.186 143.467 169.903 143.467 168.565C143.467 167.227 143.8 165.943 144.393 164.997C144.986 164.05 145.79 163.518 146.629 163.517H173C173.839 163.517 174.644 164.048 175.238 164.995C175.831 165.942 176.165 167.226 176.165 168.565C176.165 169.903 175.831 171.187 175.238 172.134C174.644 173.081 173.839 173.613 173 173.613Z" fill="white"/>
<path d="M60.5526 37.9834H55.8777C56.0927 38.8242 56.1747 39.7364 56.1166 40.6397C56.0586 41.5429 55.8621 42.4096 55.5446 43.1632C55.2271 43.9169 54.7983 44.5344 54.2959 44.9614C53.7935 45.3884 53.233 45.6117 52.6638 45.6118H32.1466C31.5774 45.6118 31.0169 45.3884 30.5146 44.9614C30.0122 44.5344 29.5834 43.9169 29.2659 43.1632C28.9483 42.4096 28.7519 41.5429 28.6938 40.6397C28.6357 39.7364 28.7178 38.8242 28.9328 37.9834H24.5664C22.6287 37.9834 20.7703 39.2113 19.4001 41.397C18.0299 43.5827 17.2601 46.5472 17.2601 49.6382V197.353C17.2601 200.444 18.0299 203.408 19.4001 205.594C20.7703 207.78 22.6287 209.008 24.5664 209.008H60.5526C62.4903 209.008 64.3487 207.78 65.7189 205.594C67.0891 203.408 67.8589 200.444 67.8589 197.353V49.6382C67.8589 46.5472 67.0891 43.5827 65.7189 41.397C64.3487 39.2113 62.4903 37.9834 60.5526 37.9834Z" fill="#F0F0F0"/>
<path d="M60.5944 94.5534C59.6813 90.3691 58.207 86.5528 56.2743 83.3707C54.3416 80.1886 51.997 77.7174 49.4041 76.1292C46.8111 74.5411 44.0322 73.8743 41.2611 74.1754C38.49 74.4765 35.7935 75.7382 33.3594 77.8725C30.9254 80.0068 28.8126 82.9624 27.1682 86.5331C25.5239 90.1038 24.3876 94.2037 23.8386 98.5469C23.2896 102.89 23.3412 107.372 23.9896 111.68C24.6381 115.988 25.8679 120.019 27.5933 123.491C27.7647 123.836 27.9429 124.18 28.1247 124.514C28.1384 124.536 28.1486 124.558 28.1624 124.579C28.6092 125.401 29.0841 126.182 29.5849 126.92C29.7153 127.111 29.8524 127.308 29.9895 127.494C30.2499 127.866 30.5174 128.221 30.7951 128.56C30.9047 128.697 31.011 128.834 31.1242 128.965C31.5629 129.495 32.0188 129.987 32.4885 130.458L32.5091 130.474C32.6426 130.605 32.7799 130.737 32.917 130.862C33.1637 131.098 33.4175 131.322 33.671 131.535L33.8322 131.666C34.2025 131.972 34.5796 132.262 34.9669 132.53C35.0457 132.585 35.1314 132.64 35.2103 132.694C35.2171 132.7 35.2205 132.7 35.2274 132.705C35.4091 132.825 35.5907 132.94 35.7759 133.05C36.384 133.42 37.0042 133.738 37.6338 134.001C39.2408 134.684 40.8968 135.03 42.5599 135.029C43.1666 135.029 43.7665 134.985 44.3595 134.892C45.7146 134.693 47.0523 134.262 48.3498 133.607C48.3531 133.607 48.3566 133.602 48.36 133.602C49.1796 133.185 49.9802 132.679 50.7562 132.087C50.7595 132.082 50.7664 132.082 50.7699 132.076C50.9447 131.945 51.1127 131.803 51.2841 131.666C51.3116 131.644 51.3389 131.622 51.3663 131.601C51.5034 131.486 51.6406 131.371 51.7777 131.251C52.1205 130.95 52.4565 130.633 52.7889 130.294C52.8814 130.206 52.9707 130.113 53.0632 130.015C53.1934 129.878 53.3237 129.736 53.4505 129.588C53.6184 129.402 53.7865 129.211 53.951 129.014C54.0024 128.954 54.0573 128.894 54.1087 128.828C57.3202 124.94 59.6776 119.529 60.8427 113.372C62.0078 107.215 61.9209 100.627 60.5944 94.5534L60.5944 94.5534Z" fill="white"/>
<path d="M55.7731 158.911H29.4019C28.5626 158.911 27.7577 158.379 27.1642 157.432C26.5708 156.486 26.2374 155.202 26.2374 153.863C26.2374 152.524 26.5708 151.24 27.1642 150.293C27.7577 149.347 28.5626 148.815 29.4019 148.815H55.7731C56.6118 148.816 57.416 149.349 58.0088 150.295C58.6017 151.242 58.9347 152.525 58.9347 153.863C58.9347 155.201 58.6017 156.484 58.0088 157.431C57.416 158.377 56.6118 158.91 55.7731 158.911Z" fill="white"/>
<path d="M55.7731 174.476H29.402C28.9861 174.476 28.5743 174.346 28.1901 174.093C27.8058 173.839 27.4566 173.468 27.1624 172.999C26.8682 172.53 26.6349 171.973 26.4757 171.361C26.3165 170.748 26.2345 170.091 26.2345 169.428C26.2345 168.765 26.3165 168.108 26.4757 167.495C26.6349 166.882 26.8682 166.326 27.1624 165.857C27.4566 165.388 27.8058 165.016 28.1901 164.763C28.5743 164.509 28.9861 164.379 29.402 164.38H55.7731C56.6124 164.38 57.4173 164.912 58.0108 165.858C58.6043 166.805 58.9377 168.089 58.9377 169.428C58.9377 170.767 58.6043 172.051 58.0108 172.997C57.4173 173.944 56.6124 174.476 55.7731 174.476Z" fill="white"/>
<path d="M35.8307 111.694L36.9399 117.823L51.1141 117.424L50.9899 106.194C50.8916 97.3054 46.9535 89.639 41.3812 89.7958C35.809 89.9526 32.2659 97.4672 32.3642 106.356L33.1737 117.929L35.4847 117.864L35.8307 111.694Z" fill="#2F2E41"/>
<path d="M42.0146 115.98C45.5269 115.98 48.3742 111.438 48.3742 105.835C48.3742 100.232 45.5269 95.6904 42.0146 95.6904C38.5023 95.6904 35.655 100.232 35.655 105.835C35.655 111.438 38.5023 115.98 42.0146 115.98Z" fill="#FFB6B6"/>
<path d="M54.6732 121.655L54.5291 125.922C51.4769 130.986 47.3134 133.967 42.9128 134.239C38.5121 134.511 34.2165 132.053 30.9279 127.38C30.7809 127.174 30.6368 126.958 30.4957 126.738C31.3776 125.341 33.8116 121.89 36.513 121.571L48.6943 120.347C48.6943 120.347 53.3092 119.484 54.6732 121.655Z" fill="#E4E4E4"/>
<path d="M48.9765 98.7119C48.9681 97.9351 48.8157 97.1797 48.5385 96.5409C48.5092 96.4753 48.4798 96.4143 48.4503 96.3533C48.2147 95.8736 47.9127 95.4873 47.568 95.2246C47.2233 94.9619 46.8452 94.8298 46.4632 94.8388L41.8923 94.9701L37.3243 95.0967C36.6699 95.1176 36.0473 95.5512 35.5928 96.3025C35.1383 97.0539 34.8889 98.0618 34.8992 99.1058L35.9868 102.599L36.6129 104.606L36.7158 104.512C40.6694 100.967 42.2861 100.92 47.5186 104.217L47.6243 104.282L48.0388 102.59L48.9794 98.7494L48.9765 98.7119Z" fill="#2F2E41"/>
<path d="M56.1162 124.526C55.7488 125.276 55.4171 125.262 55.0025 125.947C53.9562 127.687 52.2863 129.176 50.9812 130.419L50.6961 122.27L54.6732 121.655C55.3352 122.34 55.8412 123.346 56.1162 124.526Z" fill="#E4E4E4"/>
<path d="M60.5944 94.5534C59.6813 90.3691 58.207 86.5528 56.2743 83.3707C54.3416 80.1886 51.997 77.7174 49.4041 76.1292C46.8111 74.5411 44.0322 73.8743 41.2611 74.1754C38.49 74.4765 35.7935 75.7382 33.3594 77.8725C30.9254 80.0068 28.8126 82.9624 27.1682 86.5331C25.5239 90.1038 24.3876 94.2037 23.8386 98.5469C23.2896 102.89 23.3412 107.372 23.9896 111.68C24.6381 115.988 25.8679 120.019 27.5933 123.491C27.7647 123.836 27.9429 124.18 28.1247 124.514C28.1384 124.536 28.1486 124.558 28.1624 124.579C28.6092 125.401 29.0841 126.182 29.5849 126.92C29.7153 127.111 29.8524 127.308 29.9895 127.494C30.2499 127.866 30.5174 128.221 30.7951 128.56C30.9047 128.697 31.011 128.834 31.1242 128.965C31.5629 129.495 32.0188 129.987 32.4885 130.458L32.5091 130.474C32.6426 130.605 32.7799 130.737 32.917 130.862C33.1637 131.098 33.4175 131.322 33.671 131.535L33.8322 131.666C34.2025 131.972 34.5796 132.262 34.9669 132.53C35.0457 132.585 35.1314 132.64 35.2103 132.694C35.2171 132.7 35.2205 132.7 35.2274 132.705C35.4091 132.825 35.5907 132.94 35.7759 133.05C36.384 133.42 37.0042 133.738 37.6338 134.001C39.2408 134.684 40.8968 135.03 42.5599 135.029C43.1666 135.029 43.7665 134.985 44.3595 134.892C45.7146 134.693 47.0523 134.262 48.3498 133.607C48.3531 133.607 48.3566 133.602 48.36 133.602C49.1796 133.185 49.9802 132.679 50.7562 132.087C50.7595 132.082 50.7664 132.082 50.7699 132.076C50.9447 131.945 51.1127 131.803 51.2841 131.666C51.3116 131.644 51.3389 131.622 51.3663 131.601C51.5034 131.486 51.6406 131.371 51.7777 131.251C52.1205 130.95 52.4565 130.633 52.7889 130.294C52.8814 130.206 52.9707 130.113 53.0632 130.015C53.1934 129.878 53.3237 129.736 53.4505 129.588C53.6184 129.402 53.7865 129.211 53.951 129.014C54.0024 128.954 54.0573 128.894 54.1087 128.828C57.3202 124.94 59.6776 119.529 60.8427 113.372C62.0078 107.215 61.9209 100.627 60.5944 94.5534L60.5944 94.5534ZM53.478 127.499C53.3649 127.642 53.2484 127.778 53.1317 127.904C53.0185 128.041 52.9056 128.172 52.7889 128.292C52.6895 128.407 52.59 128.517 52.4873 128.62L52.4565 128.653C52.381 128.735 52.3057 128.812 52.2302 128.888C51.9456 129.173 51.6577 129.446 51.3663 129.709C51.3355 129.736 51.3046 129.763 51.2738 129.791C51.1435 129.905 51.0133 130.015 50.8831 130.124C50.8658 130.141 50.8453 130.152 50.8282 130.168L50.8076 130.184C50.6431 130.321 50.475 130.452 50.3071 130.578C49.6589 131.076 48.9914 131.507 48.3086 131.869C48.2194 131.918 48.1303 131.967 48.0413 132.011C46.8132 132.634 45.5467 133.044 44.2637 133.236C43.7014 133.318 43.1323 133.361 42.5599 133.361C40.9869 133.367 39.4204 133.039 37.9013 132.388C37.1217 132.063 36.3576 131.65 35.6149 131.152C35.577 131.125 35.5359 131.103 35.4982 131.076C35.4572 131.048 35.4194 131.026 35.3817 130.999C35.3405 130.972 35.3029 130.944 35.2617 130.912C34.9395 130.687 34.6206 130.441 34.3088 130.184L34.158 130.059C33.7774 129.741 33.4038 129.402 33.0404 129.041C32.9341 128.938 32.8245 128.828 32.7215 128.713C32.6942 128.686 32.6701 128.659 32.6427 128.631C32.3993 128.374 32.1559 128.106 31.9194 127.828C31.7584 127.636 31.5972 127.445 31.4395 127.248C31.1756 126.931 30.9218 126.592 30.6751 126.242C30.5449 126.067 30.418 125.875 30.2946 125.695C29.8086 124.979 29.3485 124.22 28.9166 123.42C28.7726 123.158 28.632 122.895 28.4983 122.622C28.4679 122.568 28.4393 122.511 28.4126 122.452C26.1853 117.969 24.8457 112.529 24.5644 106.826C24.2832 101.123 25.0731 95.4163 26.8335 90.4326C28.5939 85.4489 31.2449 81.4145 34.4485 78.8439C37.6521 76.2734 41.2631 75.2831 44.8209 75.9995C48.3788 76.7159 51.7222 79.1065 54.4249 82.8663C57.1275 86.6262 59.0669 91.5849 59.9957 97.1101C60.9245 102.635 60.8006 108.477 59.6397 113.889C58.4789 119.301 56.3338 124.04 53.478 127.499Z" fill="#E4E4E4"/>
<path d="M117.127 119.724C117.395 119.81 117.672 119.801 117.938 119.698C118.204 119.595 118.452 119.401 118.666 119.128C118.879 118.855 119.053 118.511 119.174 118.119C119.295 117.728 119.361 117.299 119.367 116.863L133.507 95.6325L130.325 91.584L117.402 113.779C116.942 113.812 116.505 114.113 116.175 114.624C115.845 115.136 115.643 115.824 115.609 116.557C115.575 117.289 115.711 118.017 115.991 118.6C116.27 119.184 116.675 119.584 117.127 119.724H117.127Z" fill="#FFB7B7"/>
<path d="M131.503 99.0639L128.752 93.9212C128.674 93.7749 128.616 93.6033 128.583 93.4183C128.55 93.2333 128.543 93.0391 128.561 92.849C128.579 92.6589 128.623 92.4773 128.69 92.3166C128.756 92.1559 128.843 92.0199 128.945 91.9178L132.527 88.3414C132.998 87.7066 133.608 87.3959 134.223 87.4777C134.838 87.5595 135.408 88.0269 135.807 88.7776C136.206 89.5283 136.402 90.5008 136.353 91.4819C136.303 92.4631 136.011 93.3727 135.542 94.0113L132.774 99.075C132.694 99.22 132.597 99.3359 132.487 99.4151C132.377 99.4942 132.257 99.5346 132.137 99.5336C132.016 99.5325 131.897 99.49 131.788 99.409C131.679 99.3279 131.581 99.2102 131.503 99.0639Z" fill="#6C63FF"/>
<path d="M124.106 203.824L120.648 203.824L119.004 182.552L124.106 182.553L124.106 203.824Z" fill="#FFB7B7"/>
<path d="M124.987 209.17L113.84 209.17V208.945C113.84 207.109 114.297 205.349 115.111 204.051C115.924 202.753 117.028 202.024 118.179 202.023H118.179L124.987 202.024L124.987 209.17Z" fill="#2F2E41"/>
<path d="M151.742 203.824L148.284 203.824L146.64 182.552L151.742 182.553L151.742 203.824Z" fill="#FFB7B7"/>
<path d="M152.623 209.17L141.476 209.17V208.945C141.476 207.109 141.933 205.349 142.747 204.051C143.56 202.753 144.664 202.024 145.815 202.023H145.815L152.623 202.024L152.623 209.17Z" fill="#2F2E41"/>
<path d="M142.442 110.34L145.927 89.8012L141.406 85.7476H135.095L132.641 89.9363C132.641 89.9363 128.54 94.4875 129.533 99.53L131.134 111.015L128.685 129.257L116.347 156.552L113.426 183.362L124.923 188.17L137.356 149.12L143.384 192.359L154.598 191.459L150.734 139.032C150.734 139.032 149.632 123.061 143.858 113.088L142.442 110.34Z" fill="#2F2E41"/>
<path d="M149.639 128.512C149.833 128.205 149.983 127.833 150.078 127.424C150.172 127.014 150.21 126.577 150.187 126.142C150.164 125.707 150.081 125.285 149.945 124.907C149.809 124.528 149.623 124.202 149.399 123.95L146.695 94.8516L142.814 96.8064L146.699 124.832C146.46 125.459 146.372 126.205 146.454 126.928C146.537 127.651 146.782 128.301 147.144 128.755C147.507 129.208 147.961 129.434 148.421 129.389C148.88 129.345 149.314 129.033 149.639 128.512V128.512Z" fill="#FFB7B7"/>
<path d="M147.364 99.4187L143.153 100.193C143.034 100.215 142.912 100.196 142.798 100.136C142.683 100.077 142.578 99.9784 142.489 99.8481C142.4 99.7178 142.33 99.5586 142.283 99.3812C142.237 99.2038 142.215 99.0125 142.219 98.8202L142.355 92.0837C142.288 91.1053 142.466 90.1242 142.852 89.3556C143.237 88.5869 143.798 88.0936 144.411 87.9837C145.025 87.8738 145.64 88.1564 146.123 88.7694C146.606 89.3824 146.916 90.2759 146.987 91.2538L148.078 97.7425C148.109 97.9283 148.115 98.1227 148.095 98.3123C148.075 98.502 148.029 98.6825 147.961 98.8416C147.894 99.0006 147.805 99.1345 147.702 99.2341C147.599 99.3337 147.483 99.3967 147.364 99.4187V99.4187Z" fill="#6C63FF"/>
<path d="M131.194 79.9068V71.253C131.195 68.1788 131.961 65.2311 133.324 63.058C134.688 60.8848 136.536 59.6641 138.463 59.6641C140.39 59.6641 142.239 60.8848 143.602 63.058C144.965 65.2311 145.731 68.1788 145.733 71.253V79.9068C145.732 80.3198 145.629 80.7157 145.446 81.0077C145.263 81.2997 145.015 81.464 144.756 81.4645H132.17C131.911 81.464 131.663 81.2997 131.48 81.0077C131.297 80.7157 131.194 80.3198 131.194 79.9068Z" fill="#2F2E41"/>
<path d="M136.969 81.2629C139.913 81.2629 142.299 77.4565 142.299 72.7611C142.299 68.0657 139.913 64.2593 136.969 64.2593C134.026 64.2593 131.64 68.0657 131.64 72.7611C131.64 77.4565 134.026 81.2629 136.969 81.2629Z" fill="#FFB7B7"/>
<path d="M129.474 71.9454C129.476 69.5134 130.082 67.1818 131.16 65.4622C132.238 63.7425 133.7 62.7752 135.224 62.7725H136.309C137.834 62.7752 139.296 63.7425 140.374 65.4622C141.452 67.1819 142.058 69.5134 142.06 71.9454V72.1185H139.767L138.985 68.6252L138.828 72.1185H137.643L137.249 70.356L137.17 72.1185H129.474L129.474 71.9454Z" fill="#2F2E41"/>
<path d="M136.445 82.4377C136.337 82.2051 136.273 81.9288 136.259 81.6406C136.246 81.3523 136.284 81.0638 136.368 80.8083C137.518 77.3198 139.128 70.8737 136.991 66.8984L136.838 66.6128H143.041V81.4695L137.406 83.0556C137.349 83.0717 137.291 83.0798 137.233 83.0799C137.079 83.0799 136.927 83.0217 136.79 82.9101C136.653 82.7984 136.535 82.6365 136.445 82.4377Z" fill="#2F2E41"/>
<path d="M111.398 209.079H67.6765C65.2154 209.075 62.8559 207.513 61.1157 204.738C59.3755 201.962 58.3966 198.198 58.3939 194.272V14.8075C58.3966 10.8817 59.3755 7.11795 61.1157 4.34196C62.8559 1.56597 65.2154 0.00446036 67.6765 0H73.5854L73.3573 0.891984C73.1212 1.81515 73.0311 2.81676 73.0948 3.80859C73.1586 4.80041 73.3742 5.75201 73.7229 6.57954C74.0715 7.40708 74.5423 8.08515 75.0939 8.55402C75.6455 9.02289 76.261 9.26817 76.886 9.26825H101.813C102.438 9.26816 103.053 9.02287 103.605 8.55401C104.157 8.08515 104.628 7.40709 104.976 6.57957C105.325 5.75205 105.541 4.80047 105.604 3.80864C105.668 2.81681 105.578 1.81518 105.342 0.891984L105.114 0H111.398C113.859 0.00445228 116.218 1.56596 117.958 4.34194C119.699 7.11793 120.678 10.8817 120.68 14.8075V194.272C120.678 198.198 119.699 201.962 117.958 204.738C116.218 207.513 113.859 209.075 111.398 209.079Z" fill="white"/>
<path d="M111.398 209.079H67.6765C65.2154 209.075 62.8559 207.513 61.1157 204.738C59.3755 201.962 58.3966 198.198 58.3939 194.272V14.8075C58.3966 10.8817 59.3755 7.11795 61.1157 4.34196C62.8559 1.56597 65.2154 0.00446036 67.6765 0H73.5854L73.3573 0.891984C73.1212 1.81515 73.0311 2.81676 73.0948 3.80859C73.1586 4.80041 73.3742 5.75201 73.7229 6.57954C74.0715 7.40708 74.5423 8.08515 75.0939 8.55402C75.6455 9.02289 76.261 9.26817 76.886 9.26825H101.813C102.438 9.26816 103.053 9.02287 103.605 8.55401C104.157 8.08515 104.628 7.40709 104.976 6.57957C105.325 5.75205 105.541 4.80047 105.604 3.80864C105.668 2.81681 105.578 1.81518 105.342 0.891984L105.114 0H111.398C113.859 0.00445228 116.218 1.56596 117.958 4.34194C119.699 7.11793 120.678 10.8817 120.68 14.8075V194.272C120.678 198.198 119.699 201.962 117.958 204.738C116.218 207.513 113.859 209.075 111.398 209.079ZM67.6765 1.29498C65.4306 1.29907 63.2775 2.72403 61.6895 5.25724C60.1015 7.79046 59.2082 11.2251 59.2057 14.8075V194.272C59.2082 197.854 60.1015 201.289 61.6895 203.822C63.2775 206.355 65.4306 207.78 67.6765 207.784H111.398C113.643 207.78 115.797 206.355 117.385 203.822C118.973 201.289 119.866 197.854 119.868 194.272V14.8075C119.866 11.225 118.973 7.79043 117.385 5.25722C115.797 2.72401 113.643 1.29906 111.398 1.29498H106.282C106.464 2.38704 106.486 3.5311 106.346 4.63887C106.207 5.74663 105.91 6.78851 105.478 7.6841C105.046 8.5797 104.491 9.30507 103.856 9.80427C103.22 10.3035 102.521 10.5631 101.813 10.5632H76.886C76.1778 10.5628 75.4791 10.303 74.8438 9.80365C74.2085 9.30435 73.6535 8.57896 73.2218 7.68342C72.7901 6.78788 72.493 5.74612 72.3536 4.63848C72.2142 3.53085 72.2361 2.38694 72.4177 1.29497L67.6765 1.29498Z" fill="#3F3D56" fill-opacity="0.38"/>
<path d="M112.673 63.4848C111.564 58.4011 109.773 53.7645 107.424 49.8985C105.076 46.0324 102.228 43.03 99.0776 41.1005C95.9273 39.171 92.5511 38.3609 89.1843 38.7267C85.8176 39.0925 82.5415 40.6253 79.5843 43.2184C76.6271 45.8115 74.0601 49.4023 72.0623 53.7405C70.0645 58.0787 68.684 63.0599 68.017 68.3367C67.35 73.6134 67.4126 79.0587 68.2005 84.2929C68.9883 89.5271 70.4825 94.4241 72.5787 98.6425C72.7869 99.0611 73.0035 99.4796 73.2242 99.8849C73.2408 99.9114 73.2532 99.938 73.2699 99.9646C73.8129 100.962 74.39 101.912 74.9985 102.808C75.1567 103.041 75.3232 103.28 75.4898 103.506C75.8064 103.957 76.1312 104.389 76.4685 104.801C77.1273 105.629 77.8141 106.399 78.5259 107.106L78.5509 107.126C79.0132 107.585 79.4837 108.01 79.9629 108.415L80.1585 108.575C80.6083 108.947 81.0665 109.299 81.5371 109.624C81.6329 109.691 81.737 109.757 81.8328 109.824C81.8411 109.83 81.8454 109.83 81.8537 109.837C82.8046 110.468 83.7814 110.994 84.7774 111.411C86.7297 112.241 88.7416 112.661 90.762 112.66C91.4992 112.66 92.2281 112.607 92.9486 112.494C94.5949 112.252 96.2201 111.729 97.7964 110.933C97.8007 110.933 97.8047 110.926 97.8088 110.926C98.8046 110.42 99.7773 109.806 100.72 109.086C100.724 109.08 100.733 109.08 100.737 109.073C100.949 108.913 101.153 108.741 101.361 108.575C101.395 108.548 101.428 108.521 101.462 108.495C101.628 108.355 101.795 108.216 101.961 108.07C102.378 107.704 102.786 107.319 103.19 106.907C103.302 106.801 103.411 106.688 103.523 106.568C103.889 106.183 104.252 105.771 104.602 105.353C104.664 105.279 104.731 105.206 104.793 105.127C108.695 100.402 111.559 93.8285 112.975 86.3479C114.39 78.8673 114.285 70.8639 112.673 63.4848H112.673Z" fill="white"/>
<path d="M98.4186 90.9059C100.339 90.9059 101.896 88.4226 101.896 85.3592C101.896 82.2958 100.339 79.8125 98.4186 79.8125C96.4982 79.8125 94.9414 82.2958 94.9414 85.3592C94.9414 88.4226 96.4982 90.9059 98.4186 90.9059Z" fill="#2F2E41"/>
<path d="M99.3873 79.9651C99.9892 79.9652 100.581 80.2143 101.104 80.6883C101.627 81.1622 102.065 81.8447 102.373 82.669C102.682 83.4933 102.851 84.4312 102.864 85.391C102.877 86.3508 102.734 87.2996 102.448 88.1447C102.75 87.543 102.969 86.8478 103.093 86.1033C103.217 85.3588 103.242 84.5814 103.167 83.8207C103.092 83.0599 102.918 82.3324 102.657 81.6845C102.396 81.0366 102.053 80.4826 101.65 80.0578C101.248 79.6329 100.794 79.3465 100.318 79.2169C99.842 79.0872 99.3544 79.1171 98.8861 79.3046C98.4178 79.4921 97.9792 79.8332 97.5981 80.3061C97.217 80.779 96.9019 81.3733 96.6727 82.0512C96.9978 81.4002 97.4107 80.8745 97.8808 80.5133C98.3509 80.1521 98.866 79.9648 99.3878 79.9651H99.3873Z" fill="#2F2E41"/>
<path d="M91.9206 85.3473C97.562 85.3473 102.135 78.0522 102.135 69.0533C102.135 60.0544 97.562 52.7593 91.9206 52.7593C86.2793 52.7593 81.7061 60.0544 81.7061 69.0533C81.7061 78.0522 86.2793 85.3473 91.9206 85.3473Z" fill="#2F2E41"/>
<path d="M83.9038 58.9436C85.6639 55.7861 88.1241 53.8429 90.7653 53.524C93.4065 53.2052 96.0221 54.5358 98.0599 57.2348C97.9766 57.108 97.8933 56.9804 97.8071 56.8575C95.789 53.9774 93.1365 52.4935 90.4328 52.7319C87.729 52.9703 85.1952 54.9115 83.3884 58.1288C81.5815 61.3461 80.6495 65.5763 80.7971 69.8894C80.9448 74.2025 82.16 78.2456 84.1757 81.13C84.1951 81.1577 84.2145 81.1853 84.234 81.2128C84.3207 81.3357 84.4098 81.4519 84.4985 81.5695C82.5795 78.6573 81.4448 74.6697 81.3339 70.4482C81.223 66.2267 82.1446 62.1017 83.9042 58.9435L83.9038 58.9436Z" fill="#2F2E41"/>
<path d="M91.834 85.209C95.4674 85.209 98.4127 80.5106 98.4127 74.7149C98.4127 68.9191 95.4674 64.2207 91.834 64.2207C88.2007 64.2207 85.2553 68.9191 85.2553 74.7149C85.2553 80.5106 88.2007 85.209 91.834 85.209Z" fill="#A0616A"/>
<path d="M103.606 102.057V105.578C103.202 105.99 102.794 106.376 102.378 106.741C102.211 106.887 102.045 107.027 101.878 107.166C101.845 107.193 101.811 107.219 101.778 107.246C101.57 107.412 101.365 107.585 101.153 107.744C101.149 107.751 101.141 107.751 101.137 107.757C100.194 108.477 99.221 109.092 98.2252 109.598C98.2212 109.598 98.2171 109.604 98.2128 109.604C96.6365 110.4 95.0113 110.923 93.365 111.166C92.6445 111.279 91.9156 111.332 91.1784 111.332C89.158 111.333 87.1461 110.913 85.1938 110.083C84.1978 109.665 83.221 109.139 82.2701 108.508C82.2618 108.502 82.2575 108.502 82.2492 108.495C82.1534 108.428 82.0493 108.362 81.9535 108.296C81.4829 107.97 81.0247 107.618 80.5749 107.246L80.3793 107.087C79.9002 106.681 79.4296 106.256 78.9674 105.798L78.9424 105.778C78.2305 105.07 77.5437 104.301 76.885 103.472C76.5476 103.061 76.2228 102.629 75.9062 102.177C75.7396 101.951 75.5731 101.712 75.4149 101.479C74.8064 100.583 74.2293 99.6336 73.6863 98.6359C73.7584 97.9439 73.8642 97.2619 74.003 96.5963L74.007 96.5896C74.032 96.4762 74.0612 96.3653 74.0945 96.2574C74.1174 96.1621 74.1439 96.0689 74.1736 95.9784C74.9191 93.7528 76.2686 93.2014 77.9428 93.0818C78.8882 93.0154 79.9335 93.0885 81.0373 93.0685C81.6204 93.0619 82.2242 93.0287 82.8281 92.9423C86.6389 92.3909 85.9476 88.8034 86.1183 86.8701C86.2891 84.9966 87.347 86.6177 87.4177 86.7239L87.4218 86.7306C89.5783 88.3405 91.9642 89.0077 94.3354 88.6639C94.7435 88.5841 95.1517 88.5376 95.5598 88.5177C96.6343 88.4978 96.4011 88.9894 96.0306 89.3947C95.8507 89.5835 95.6628 89.7522 95.4683 89.8996C95.4683 89.8996 95.2975 91.5605 95.1226 94.0452C94.956 96.4235 100.208 97.2474 101.237 97.7656H101.241C101.828 98.11 102.352 98.683 102.765 99.4325C103.178 100.182 103.467 101.084 103.606 102.057Z" fill="#3F3D56" fill-opacity="0.38"/>
<path d="M86.2074 61.5972V72.094H87.7309L89.6696 68.7802L89.4101 72.094H96.1446L95.7281 68.7802L96.5611 72.094H97.6348V61.5972H86.2074Z" fill="#2F2E41"/>
<path d="M85.1687 74.0247C85.4555 74.0247 85.688 73.3448 85.688 72.506C85.688 71.6673 85.4555 70.9873 85.1687 70.9873C84.8819 70.9873 84.6494 71.6673 84.6494 72.506C84.6494 73.3448 84.8819 74.0247 85.1687 74.0247Z" fill="#A0616A"/>
<path d="M98.4998 74.0247C98.7867 74.0247 99.0192 73.3448 99.0192 72.506C99.0192 71.6673 98.7867 70.9873 98.4998 70.9873C98.213 70.9873 97.9805 71.6673 97.9805 72.506C97.9805 73.3448 98.213 74.0247 98.4998 74.0247Z" fill="#A0616A"/>
<path d="M112.673 63.4848C111.564 58.4011 109.773 53.7645 107.424 49.8985C105.076 46.0324 102.228 43.03 99.0776 41.1005C95.9273 39.171 92.5511 38.3609 89.1843 38.7267C85.8176 39.0925 82.5415 40.6253 79.5843 43.2184C76.6271 45.8115 74.0601 49.4023 72.0623 53.7405C70.0645 58.0787 68.684 63.0599 68.017 68.3367C67.35 73.6134 67.4126 79.0587 68.2005 84.2929C68.9883 89.5271 70.4825 94.4241 72.5787 98.6425C72.7869 99.0611 73.0035 99.4796 73.2242 99.8849C73.2408 99.9114 73.2532 99.938 73.2699 99.9646C73.8129 100.962 74.39 101.912 74.9985 102.808C75.1567 103.041 75.3232 103.28 75.4898 103.506C75.8064 103.957 76.1312 104.389 76.4685 104.801C77.1273 105.629 77.8141 106.399 78.5259 107.106L78.5509 107.126C79.0132 107.585 79.4837 108.01 79.9629 108.415L80.1585 108.575C80.6083 108.947 81.0665 109.299 81.5371 109.624C81.6329 109.691 81.737 109.757 81.8328 109.824C81.8411 109.83 81.8454 109.83 81.8537 109.837C82.8046 110.468 83.7814 110.994 84.7774 111.411C86.7297 112.241 88.7416 112.661 90.762 112.66C91.4992 112.66 92.2281 112.607 92.9486 112.494C94.5949 112.252 96.2201 111.729 97.7964 110.933C97.8007 110.933 97.8047 110.926 97.8088 110.926C98.8046 110.42 99.7773 109.806 100.72 109.086C100.724 109.08 100.733 109.08 100.737 109.073C100.949 108.913 101.153 108.741 101.361 108.575C101.395 108.548 101.428 108.521 101.462 108.495C101.628 108.355 101.795 108.216 101.961 108.07C102.378 107.704 102.786 107.319 103.19 106.907C103.302 106.801 103.411 106.688 103.523 106.568C103.889 106.183 104.252 105.771 104.602 105.353C104.664 105.279 104.731 105.206 104.793 105.127C108.695 100.402 111.559 93.8285 112.975 86.3479C114.39 78.8673 114.285 70.8639 112.673 63.4848H112.673ZM104.027 103.512C103.889 103.685 103.748 103.851 103.606 104.004C103.469 104.17 103.331 104.329 103.19 104.476C103.069 104.615 102.948 104.748 102.823 104.874C102.719 104.987 102.615 105.093 102.511 105.2C102.165 105.545 101.816 105.877 101.462 106.196C101.424 106.229 101.386 106.263 101.349 106.296C101.191 106.435 101.032 106.568 100.874 106.701C100.853 106.721 100.828 106.734 100.808 106.754L100.783 106.774C100.583 106.94 100.379 107.1 100.174 107.253C99.387 107.858 98.576 108.381 97.7464 108.82C97.6382 108.88 97.5298 108.94 97.4216 108.993C95.9296 109.75 94.3909 110.249 92.832 110.481C92.1489 110.581 91.4575 110.634 90.762 110.634C88.8509 110.64 86.9477 110.243 85.1021 109.452C84.155 109.057 83.2266 108.555 82.3243 107.95C82.2285 107.89 82.1327 107.824 82.041 107.764C81.9911 107.731 81.9452 107.698 81.8952 107.658C81.5037 107.385 81.1165 107.087 80.7374 106.774L80.5542 106.621C80.092 106.236 79.6379 105.824 79.1964 105.386C79.0341 105.226 78.8716 105.06 78.7134 104.887C78.2135 104.363 77.7263 103.798 77.2515 103.207C76.9308 102.821 76.6227 102.409 76.3227 101.984C76.1645 101.772 76.0104 101.539 75.8605 101.32C75.27 100.45 74.711 99.5273 74.1862 98.5561C74.0113 98.2373 73.8405 97.9184 73.678 97.5862C73.6411 97.5205 73.6063 97.4517 73.5739 97.3802C70.8679 91.9333 69.2403 85.3241 68.8986 78.3955C68.5569 71.467 69.5167 64.5331 71.6554 58.4782C73.7942 52.4233 77.0151 47.5218 80.9072 44.3987C84.7994 41.2757 89.1866 40.0726 93.5091 40.943C97.8317 41.8134 101.894 44.7178 105.177 49.2858C108.461 53.8537 110.817 59.8783 111.946 66.5911C113.074 73.3039 112.923 80.4007 111.513 86.9764C110.103 93.5522 107.497 99.3088 104.027 103.512Z" fill="#3F3D56" fill-opacity="0.38"/>
<path d="M106.774 141.621H74.7346C73.7154 141.62 72.7384 140.973 72.018 139.823C71.2977 138.673 70.8931 137.114 70.8931 135.488C70.8931 133.863 71.2977 132.304 72.018 131.154C72.7384 130.004 73.7154 129.357 74.7346 129.355H106.774C107.279 129.355 107.779 129.513 108.246 129.821C108.713 130.129 109.137 130.58 109.495 131.15C109.852 131.72 110.136 132.396 110.329 133.14C110.522 133.885 110.622 134.683 110.622 135.488C110.622 136.294 110.522 137.092 110.329 137.837C110.136 138.581 109.852 139.257 109.495 139.827C109.137 140.397 108.713 140.848 108.246 141.156C107.779 141.464 107.279 141.622 106.774 141.621Z" fill="#3333A2"/>
<path d="M106.774 160.532H74.7346C73.7154 160.53 72.7384 159.884 72.018 158.734C71.2977 157.583 70.8931 156.024 70.8931 154.399C70.8931 152.773 71.2977 151.214 72.018 150.064C72.7384 148.914 73.7154 148.267 74.7346 148.266H106.774C107.279 148.265 107.779 148.423 108.246 148.731C108.713 149.039 109.137 149.491 109.495 150.06C109.852 150.63 110.136 151.306 110.329 152.05C110.522 152.795 110.622 153.593 110.622 154.399C110.622 155.204 110.522 156.002 110.329 156.747C110.136 157.491 109.852 158.168 109.495 158.737C109.137 159.307 108.713 159.758 108.246 160.066C107.779 160.374 107.279 160.532 106.774 160.532Z" fill="#3333A2"/>
<path d="M89.6329 187.363C91.7563 187.363 93.4777 184.617 93.4777 181.23C93.4777 177.843 91.7563 175.097 89.6329 175.097C87.5096 175.097 85.7882 177.843 85.7882 181.23C85.7882 184.617 87.5096 187.363 89.6329 187.363Z" fill="#3F3D56" fill-opacity="0.38"/>
<path d="M108.473 181.23C106.653 180.154 104.396 178.316 102.996 176.37L103.982 180.719H97.002V181.741H103.982L102.996 186.091C104.396 184.145 106.653 182.307 108.473 181.23Z" fill="#3F3D56" fill-opacity="0.38"/>
<path d="M70.7927 181.23C72.6125 180.154 74.8702 178.316 76.2698 176.37L75.2834 180.719H82.2639V181.741H75.2834L76.2698 186.091C74.8702 184.145 72.6125 182.307 70.7927 181.23Z" fill="#3F3D56" fill-opacity="0.38"/>
<path d="M196.729 209.568L0.270604 210C0.198836 210 0.130006 209.955 0.079258 209.874C0.0285098 209.793 0 209.683 0 209.568C0 209.454 0.0285098 209.344 0.079258 209.263C0.130006 209.182 0.198836 209.137 0.270604 209.137L196.729 208.705C196.801 208.705 196.87 208.751 196.921 208.832C196.972 208.912 197 209.022 197 209.137C197 209.251 196.972 209.361 196.921 209.442C196.87 209.523 196.801 209.568 196.729 209.568Z" fill="#3F3D56" fill-opacity="0.38"/>
</g>
<defs>
<clipPath id="clip0_256_291">
<rect width="197" height="210" rx="3.85059" fill="white"/>
</clipPath>
</defs>
</svg>
